<svg width="29" height="29" viewBox="0 0 29 29" fill="none" xmlns="http://www.w3.org/2000/svg">
<g clip-path="url(#clip0)">
<path d="M28.9716 8.52608C28.9037 6.9852 28.6545 5.92586 28.2976 5.00792C27.9293 4.03356 27.3628 3.16121 26.6206 2.43602C25.8954 1.69955 25.0173 1.12728 24.0542 0.764798C23.131 0.407848 22.0772 0.158669 20.5363 0.0907312C18.9839 0.0170398 18.4911 0 14.5538 0C10.6165 0 10.1237 0.0170398 8.57703 0.0849775C7.03616 0.152915 5.97681 0.402316 5.0591 0.759044C4.08452 1.12728 3.21217 1.6938 2.48698 2.43602C1.75051 3.16121 1.17846 4.03931 0.815761 5.00239C0.458812 5.92586 0.209633 6.97944 0.141695 8.52033C0.0680041 10.0727 0.0509644 10.5655 0.0509644 14.5028C0.0509644 18.4401 0.0680041 18.933 0.135942 20.4796C0.20388 22.0205 0.453279 23.0798 0.810229 23.9977C1.17846 24.9721 1.75051 25.8445 2.48698 26.5696C3.21217 27.3061 4.09027 27.8784 5.05335 28.2409C5.97681 28.5978 7.0304 28.847 8.5715 28.9149C10.1179 28.9831 10.611 28.9999 14.5483 28.9999C18.4855 28.9999 18.9784 28.9831 20.525 28.9149C22.0659 28.847 23.1252 28.5978 24.0429 28.2409C25.9919 27.4874 27.5328 25.9465 28.2863 23.9977C28.643 23.0743 28.8924 22.0205 28.9603 20.4796C29.0283 18.933 29.0453 18.4401 29.0453 14.5028C29.0453 10.5655 29.0396 10.0727 28.9716 8.52608ZM26.3601 20.3663C26.2977 21.7826 26.0598 22.5474 25.8615 23.0572C25.3742 24.3206 24.3716 25.3233 23.1082 25.8106C22.5983 26.0089 21.828 26.2468 20.4172 26.309C18.8876 26.3771 18.4289 26.3939 14.5595 26.3939C10.6902 26.3939 10.2257 26.3771 8.70162 26.309C7.28533 26.2468 6.52054 26.0089 6.01067 25.8106C5.38197 25.5782 4.8097 25.21 4.3452 24.7285C3.86366 24.2582 3.49543 23.6917 3.26307 23.063C3.06479 22.5531 2.82689 21.7826 2.76471 20.372C2.69655 18.8424 2.67973 18.3835 2.67973 14.5141C2.67973 10.6448 2.69655 10.1803 2.76471 8.65642C2.82689 7.24013 3.06479 6.47533 3.26307 5.96547C3.49543 5.33655 3.86366 4.7645 4.35096 4.29978C4.82099 3.81824 5.3875 3.45 6.01643 3.21786C6.52629 3.01958 7.29684 2.78169 8.70738 2.71928C10.237 2.65134 10.6959 2.6343 14.5651 2.6343C18.4402 2.6343 18.8989 2.65134 20.423 2.71928C21.8393 2.78169 22.6041 3.01958 23.1139 3.21786C23.7426 3.45 24.3149 3.81824 24.7794 4.29978C25.2609 4.77003 25.6292 5.33655 25.8615 5.96547C26.0598 6.47533 26.2977 7.24566 26.3601 8.65642C26.4281 10.186 26.4451 10.6448 26.4451 14.5141C26.4451 18.3835 26.4281 18.8367 26.3601 20.3663Z" fill="#253539"/>
<path d="M14.5538 7.05322C10.441 7.05322 7.10406 10.3899 7.10406 14.5029C7.10406 18.6159 10.441 21.9526 14.5538 21.9526C18.6668 21.9526 22.0035 18.6159 22.0035 14.5029C22.0035 10.3899 18.6668 7.05322 14.5538 7.05322ZM14.5538 19.3353C11.8856 19.3353 9.72133 17.1713 9.72133 14.5029C9.72133 11.8345 11.8856 9.67049 14.5538 9.67049C17.2221 9.67049 19.3862 11.8345 19.3862 14.5029C19.3862 17.1713 17.2221 19.3353 14.5538 19.3353Z" fill="#253539"/>
<path d="M24.0375 6.7587C24.0375 7.71912 23.2587 8.49786 22.2981 8.49786C21.3376 8.49786 20.5589 7.71912 20.5589 6.7587C20.5589 5.79805 21.3376 5.01953 22.2981 5.01953C23.2587 5.01953 24.0375 5.79805 24.0375 6.7587Z" fill="#253539"/>
</g>
<defs>
<clipPath id="clip0">
<rect width="29" height="29" fill="white"/>
</clipPath>
</defs>
</svg>
