<svg width="240" height="60" viewBox="0 0 240 60" fill="none" xmlns="http://www.w3.org/2000/svg">
<path d="M36.688 42.1875C39.7086 42.155 42.6731 41.5427 45.5035 40.3671C48.2954 39.2059 50.8949 37.5213 53.2306 35.3603C55.5466 33.1625 57.3898 30.6093 58.706 27.7739C60.111 24.7477 60.8198 21.6215 60.8126 18.4825V18.4814C60.8168 15.3231 60.1272 12.4721 58.7626 10.0081C57.3371 7.56022 55.4031 5.75458 53.0173 4.64713C51.8069 4.08515 50.5677 3.80203 49.3238 3.80203C49.3178 3.80203 49.3114 3.80203 49.3054 3.80203C54.4631 7.72677 54.8286 15.037 54.5131 18.4112L54.1707 18.3631C54.1707 18.3631 52.9878 12.0596 51.0765 9.10886C49.1452 6.17456 46.3469 3.84186 42.7609 2.17693C37.2637 -0.375507 31.4944 -0.685192 25.6139 1.2573C22.4155 2.33413 19.5774 3.85707 17.1804 5.78328C14.822 7.71463 13.0196 9.99893 11.8254 12.5709C10.7434 14.9023 10.3549 17.0928 10.6719 19.082C10.9987 21.094 11.8519 22.3947 13.28 23.0577C13.6175 23.2143 14.0142 23.3019 14.4626 23.3192C13.3431 14.0501 17.7985 10.9937 17.7985 10.9937L18.1866 11.1008L17.9651 11.4544C17.3081 12.5045 17.0759 12.9274 16.9971 13.0975C15.7618 15.7581 15.4898 18.3598 16.1884 20.8298C16.7833 23.0025 18.0349 24.942 19.911 26.6011C20.6045 25.5875 20.8565 24.3358 20.5071 23.2244C20.0691 21.8309 19.5795 20.9812 19.3007 19.4683C18.8505 17.3759 19.2248 15.0098 20.4156 12.4451C21.5216 10.0619 23.1741 8.12369 25.3273 6.68406C27.475 5.24829 29.8886 4.40169 32.5006 4.16804C35.0762 3.95044 37.5721 4.39355 39.9236 5.48537C42.4795 6.67186 44.5676 8.53575 46.1297 11.0256C47.6306 13.4845 48.474 16.3533 48.6389 19.5555C48.7584 22.7048 48.1395 25.7635 46.7992 28.6509C45.647 31.1333 44.0836 33.2733 42.1527 35.0117C40.2483 36.6744 38.128 37.7678 35.8476 38.2642C33.6215 38.7621 31.4795 38.5446 29.4834 37.6183C28.9729 37.3812 28.4674 37.0921 27.9778 36.7573C27.5272 37.5716 27.2193 38.5718 27.0316 39.8148C27.472 40.0812 27.8558 40.2909 28.1744 40.4389C30.831 41.6722 33.6927 42.2599 36.688 42.1875Z" fill="#95C122"/>
<path d="M17.1513 36.3736C17.4944 35.7358 17.8135 35.0368 18.1082 34.2756C18.6723 32.8034 19.0403 31.8714 19.2125 31.4786C20.7086 27.6754 21.8621 23.5904 22.6721 19.2227C23.0152 17.407 23.3956 16.2047 23.8128 15.6157C24.2548 14.9779 25.1012 14.389 26.3523 13.8488C28.9039 12.6962 30.4498 12.0335 30.9899 11.8614C31.5052 12.8431 31.8851 14.4506 32.131 16.6831C32.376 18.8912 32.4989 21.002 32.4989 23.0134L32.9037 22.9766C32.9281 22.4862 32.9405 21.1977 32.9405 19.1122C32.9405 15.0147 32.83 12.3766 32.6094 11.1992C34.7438 10.414 36.0074 10.0212 36.4002 10.0212C36.9394 10.0212 37.2958 10.181 37.4676 10.4997C37.6389 10.8188 37.725 11.4446 37.725 12.3766C37.725 15.518 37.6149 18.7687 37.3939 22.1302C37.1485 25.4674 36.8538 28.7917 36.5107 32.1044C36.0931 35.8583 35.6026 39.6619 35.0385 43.5139C34.3266 48.4706 33.8726 51.5006 33.6768 52.6048C33.3085 54.7889 33.051 56.1746 32.9037 56.7635C32.7563 57.2788 32.4004 57.7084 31.8363 58.0519C31.2717 58.3702 30.3029 58.5304 28.9288 58.5304C28.3642 58.5304 27.8369 58.4936 27.3461 58.4199C27.8858 56.8252 28.4011 55.0339 28.8919 53.0464C29.3824 51.0097 29.8244 48.9978 30.2172 47.0104L29.8488 46.9735C28.7446 51.758 27.5542 55.5124 26.2787 58.2357C24.9778 58.0884 24.0089 57.8678 23.3711 57.5735C22.7578 57.3285 22.4511 56.9233 22.4511 56.3587C22.4511 56.1377 22.7458 55.144 23.3343 53.3775C23.9969 51.3901 24.573 49.5131 25.0643 47.7463C25.7021 45.4645 26.3399 42.7168 26.9781 39.5021C26.3399 39.4533 26.0581 39.4285 26.1317 39.4285C24.4137 39.4285 22.2056 39.8701 19.5067 40.7533C17.3719 45.6611 15.5558 49.3538 14.0596 51.8317C12.4889 54.433 10.9679 56.3468 9.49572 57.5735C8.02354 58.751 6.5021 59.3399 4.93183 59.3399C3.53332 59.3399 2.36825 58.8735 1.43534 57.9414C0.478448 57.009 0 55.8683 0 54.5186C0 53.1445 0.368366 51.9302 1.10424 50.8748C1.84055 49.8202 2.8951 49.0103 4.26962 48.4457C3.87684 49.0103 3.68067 49.6849 3.68067 50.47C3.68067 52.0403 4.31845 53.0589 5.59446 53.5249V53.1934C4.85858 52.5556 4.49022 51.8077 4.49022 50.9485C4.49022 50.016 4.82175 49.1816 5.48395 48.4457C6.12174 47.7343 6.88246 47.3783 7.76611 47.3783C8.82066 47.3783 9.49572 47.9921 9.79041 49.2184C10.4526 48.4337 11.2009 47.3175 12.0353 45.8693C12.9922 44.2498 13.6788 43.0479 14.0964 42.2623C12.9185 42.5814 11.7162 42.7408 10.4894 42.7408C8.86992 42.7408 7.56907 42.324 6.58819 41.4896C5.58161 40.6308 5.07917 39.5758 5.07917 38.3242C5.07917 37.3433 5.48395 36.4473 6.29393 35.6377C6.58819 37.6984 8.14604 38.729 10.9679 38.729C11.0416 38.729 11.4952 38.705 12.3296 38.6557L12.4769 38.3979H11.8511C10.5751 38.3979 9.50771 38.1036 8.64933 37.5147C7.81494 36.9257 7.39774 36.1654 7.39774 35.2325C7.39774 34.3741 7.81494 33.5277 8.64933 32.6933C9.48329 31.8097 10.612 31.0618 12.0353 30.448C13.3846 29.8591 14.8936 29.4671 16.5624 29.2701L16.7097 29.7854C15.0902 30.1782 13.7893 30.7551 12.8084 31.5154C11.8511 32.2761 11.3727 33.0861 11.3727 33.9445C11.3727 35.5889 12.7588 36.4104 15.5318 36.4104C16.1447 36.4104 16.6849 36.3984 17.1513 36.3736ZM21.4942 36.1161C22.8927 35.9688 24.0338 35.8951 24.917 35.8951C26.1686 35.8951 27.027 36.0056 27.4934 36.2262C27.7633 34.6564 28.0455 32.4235 28.3398 29.528C28.5608 27.0501 28.6713 25.0258 28.6713 23.4551C28.6713 21.1733 28.3154 20.0322 27.6039 20.0322C27.26 20.0815 26.9781 20.437 26.7571 21.0996C25.2117 26.2032 23.4568 31.2087 21.4942 36.1161Z" fill="#95C122"/>
<path d="M80.2657 19.4124H82.7717L87.7639 32.3926H85.1963L84.1803 29.7189H78.8842L77.8281 32.3926H75.2605L80.2657 19.4124ZM81.5338 22.8538L79.7928 27.3101H83.2655L81.5338 22.8538Z" fill="#253539"/>
<path d="M97.9887 32.3926H95.5351L93.1333 26.3388L90.6871 32.3926H88.2422L92.3368 22.7922H93.8897L97.9887 32.3926Z" fill="#253539"/>
<path d="M108.875 28.2893H101.137C101.248 28.9717 101.547 29.5145 102.032 29.9174C102.517 30.3206 103.136 30.5218 103.89 30.5218C104.79 30.5218 105.563 30.2071 106.21 29.5777L108.24 30.5308C107.734 31.2484 107.128 31.7791 106.422 32.1234C105.716 32.4674 104.878 32.6397 103.908 32.6397C102.402 32.6397 101.175 32.1647 100.228 31.2144C99.2803 30.2645 98.8069 29.0747 98.8069 27.6454C98.8069 26.1803 99.2791 24.9643 100.224 23.9964C101.167 23.0289 102.351 22.5449 103.775 22.5449C105.287 22.5449 106.516 23.0289 107.463 23.9964C108.41 24.9643 108.884 26.2422 108.884 27.8306L108.875 28.2893ZM106.466 26.3924C106.307 25.8569 105.993 25.4217 105.525 25.0864C105.056 24.751 104.513 24.5833 103.894 24.5833C103.222 24.5833 102.633 24.7716 102.127 25.148C101.808 25.3835 101.514 25.7981 101.243 26.3924H106.466Z" fill="#253539"/>
<path d="M110.825 22.7922H113.234V26.3841L116.552 22.7922H119.493L115.217 27.4704L119.546 32.3926H116.351L113.488 29.002L113.234 29.3041V32.3926H110.825V22.7922Z" fill="#253539"/>
<path d="M129.929 24.7334L127.924 25.8363C127.547 25.4424 127.174 25.1687 126.806 25.0158C126.438 24.8629 126.007 24.7861 125.512 24.7861C124.611 24.7861 123.882 25.0549 123.325 25.5925C122.769 26.1297 122.491 26.8187 122.491 27.6583C122.491 28.4748 122.758 29.1415 123.295 29.6585C123.83 30.1754 124.534 30.4337 125.406 30.4337C126.484 30.4337 127.323 30.066 127.924 29.3305L129.823 30.6313C128.794 31.9703 127.341 32.6397 125.465 32.6397C123.776 32.6397 122.454 32.1398 121.498 31.1395C120.542 30.1396 120.064 28.9689 120.064 27.6275C120.064 26.6981 120.297 25.8422 120.761 25.0598C121.226 24.2775 121.874 23.6626 122.707 23.2156C123.539 22.7687 124.47 22.5449 125.5 22.5449C126.453 22.5449 127.309 22.7348 128.067 23.1142C128.826 23.4934 129.447 24.0334 129.929 24.7334Z" fill="#253539"/>
<path d="M139.186 22.7921H141.595V32.3925H139.186V31.3778C138.715 31.8248 138.244 32.1469 137.771 32.3441C137.298 32.5411 136.786 32.6397 136.233 32.6397C134.993 32.6397 133.921 32.1586 133.016 31.1969C132.111 30.2352 131.659 29.0395 131.659 27.6099C131.659 26.1276 132.097 24.9128 132.972 23.9656C133.847 23.0187 134.911 22.5449 136.162 22.5449C136.738 22.5449 137.279 22.6537 137.784 22.8713C138.289 23.0893 138.756 23.4157 139.186 23.8509V22.7921ZM136.653 24.7686C135.908 24.7686 135.29 25.0318 134.797 25.5583C134.305 26.0847 134.059 26.7598 134.059 27.5834C134.059 28.4129 134.309 29.0953 134.81 29.6307C135.312 30.1661 135.929 30.4337 136.662 30.4337C137.418 30.4337 138.046 30.1704 138.544 29.644C139.042 29.1175 139.292 28.4277 139.292 27.5748C139.292 26.7394 139.042 26.0629 138.544 25.545C138.046 25.0275 137.416 24.7686 136.653 24.7686Z" fill="#253539"/>
<path d="M146.43 26.251H150.031V22.7922H152.439V32.3926H150.031V28.413H146.43V32.3926H144.021V22.7922H146.43V26.251Z" fill="#253539"/>
<path d="M156.118 32.3926V34.0605H153.974V30.3543H155.419L158.734 22.7922H160.287L163.648 30.3543H165.119V34.0605H162.825V32.3926H156.118ZM161.088 30.3543L159.511 26.3046L157.882 30.3543H161.088Z" fill="#253539"/>
<path d="M169.028 22.7921V23.8509C169.463 23.4157 169.934 23.0893 170.44 22.8713C170.946 22.6537 171.487 22.5449 172.063 22.5449C173.317 22.5449 174.381 23.0187 175.258 23.9656C176.134 24.9128 176.572 26.1276 176.572 27.6099C176.572 29.0395 176.119 30.2352 175.214 31.1969C174.307 32.1586 173.234 32.6397 171.993 32.6397C171.44 32.6397 170.925 32.5411 170.449 32.3441C169.972 32.1469 169.499 31.8248 169.028 31.3778V35.9046H166.637V22.7921H169.028ZM171.56 24.7686C170.802 24.7686 170.172 25.0275 169.672 25.545C169.172 26.0629 168.922 26.7394 168.922 27.5748C168.922 28.4277 169.172 29.1175 169.672 29.644C170.172 30.1704 170.802 30.4337 171.56 30.4337C172.296 30.4337 172.915 30.1661 173.418 29.6307C173.921 29.0953 174.172 28.4129 174.172 27.5834C174.172 26.7598 173.925 26.0847 173.431 25.5583C172.937 25.0318 172.314 24.7686 171.56 24.7686Z" fill="#253539"/>
<path d="M183.076 22.5449C183.982 22.5449 184.833 22.7715 185.63 23.2243C186.427 23.6774 187.049 24.292 187.497 25.0685C187.944 25.8452 188.167 26.6833 188.167 27.5834C188.167 28.4893 187.942 29.3367 187.492 30.1248C187.042 30.913 186.429 31.5292 185.652 31.9733C184.876 32.4175 184.02 32.6397 183.085 32.6397C181.708 32.6397 180.533 32.15 179.56 31.1704C178.586 30.1911 178.099 29.0013 178.099 27.601C178.099 26.1011 178.649 24.8512 179.749 23.8509C180.714 22.9805 181.823 22.5449 183.076 22.5449ZM183.116 24.8126C182.367 24.8126 181.744 25.0731 181.246 25.5937C180.748 26.1143 180.499 26.7804 180.499 27.5923C180.499 28.4277 180.745 29.1042 181.237 29.6218C181.729 30.1396 182.352 30.3982 183.107 30.3982C183.861 30.3982 184.489 30.1365 184.99 29.6128C185.49 29.0894 185.741 28.4159 185.741 27.5923C185.741 26.7687 185.495 26.0995 185.003 25.5848C184.511 25.07 183.882 24.8126 183.116 24.8126Z" fill="#253539"/>
<path d="M190.135 32.3926V22.7922H193.992C195.257 22.7922 196.115 23.0407 196.568 23.5379C197.022 24.0351 197.248 24.5982 197.248 25.2276C197.248 26.1628 196.783 26.8366 195.853 27.2481C197.125 27.6837 197.759 28.5042 197.759 29.71C197.759 30.3632 197.592 30.9029 197.256 31.3292C196.921 31.7558 196.496 32.0397 195.982 32.1809C195.467 32.3221 194.747 32.3926 193.824 32.3926H190.135ZM192.545 26.5688H193.475C193.871 26.5688 194.177 26.4705 194.392 26.2732C194.607 26.0762 194.715 25.8571 194.715 25.6157C194.715 25.2569 194.612 24.9777 194.405 24.7776C194.199 24.5776 193.953 24.4774 193.67 24.4774L193.36 24.4863H192.545V26.5688ZM192.545 30.5395H193.758C194.23 30.5395 194.562 30.4292 194.754 30.2088C194.946 29.9881 195.042 29.772 195.042 29.5602C195.042 29.2483 194.934 28.9632 194.718 28.7043C194.503 28.4453 194.115 28.3159 193.554 28.3159H192.545V30.5395Z" fill="#253539"/>
<path d="M209.204 24.7334L207.198 25.8363C206.822 25.4424 206.449 25.1687 206.081 25.0158C205.713 24.8629 205.281 24.7861 204.787 24.7861C203.885 24.7861 203.157 25.0549 202.6 25.5925C202.043 26.1297 201.765 26.8187 201.765 27.6583C201.765 28.4748 202.033 29.1415 202.569 29.6585C203.105 30.1754 203.809 30.4337 204.681 30.4337C205.758 30.4337 206.598 30.066 207.198 29.3305L209.098 30.6313C208.068 31.9703 206.615 32.6397 204.739 32.6397C203.051 32.6397 201.728 32.1398 200.773 31.1395C199.817 30.1396 199.339 28.9689 199.339 27.6275C199.339 26.6981 199.571 25.8422 200.035 25.0598C200.5 24.2775 201.149 23.6626 201.982 23.2156C202.814 22.7687 203.745 22.5449 204.774 22.5449C205.727 22.5449 206.583 22.7348 207.342 23.1142C208.101 23.4934 208.722 24.0334 209.204 24.7334Z" fill="#253539"/>
<path d="M211.375 22.7922H213.784V26.3841L217.101 22.7922H220.042L215.766 27.4704L220.095 32.3926H216.9L214.038 29.002L213.784 29.3041V32.3926H211.375V22.7922Z" fill="#253539"/>
<path d="M228.167 22.7921H230.576V32.3925H228.167V31.3778C227.696 31.8248 227.225 32.1469 226.752 32.3441C226.279 32.5411 225.767 32.6397 225.214 32.6397C223.975 32.6397 222.902 32.1586 221.997 31.1969C221.092 30.2352 220.64 29.0395 220.64 27.6099C220.64 26.1276 221.078 24.9128 221.953 23.9656C222.829 23.0187 223.892 22.5449 225.144 22.5449C225.719 22.5449 226.26 22.6537 226.765 22.8713C227.27 23.0893 227.738 23.4157 228.167 23.8509V22.7921ZM225.634 24.7686C224.89 24.7686 224.271 25.0318 223.779 25.5583C223.286 26.0847 223.04 26.7598 223.04 27.5834C223.04 28.4129 223.29 29.0953 223.792 29.6307C224.293 30.1661 224.91 30.4337 225.643 30.4337C226.399 30.4337 227.027 30.1704 227.525 29.644C228.023 29.1175 228.273 28.4277 228.273 27.5748C228.273 26.7394 228.023 26.0629 227.525 25.545C227.027 25.0275 226.397 24.7686 225.634 24.7686Z" fill="#253539"/>
<path d="M234.648 28.4543C234.129 28.2838 233.703 27.962 233.37 27.4886C233.036 27.0154 232.87 26.4819 232.87 25.8879C232.87 25.1765 233.073 24.5532 233.479 24.0181C233.885 23.4833 234.368 23.1452 234.93 23.004C235.492 22.8628 236.37 22.7922 237.564 22.7922H240V32.3926H237.591V28.916H237.123L234.83 32.3926H231.977L234.648 28.4543ZM237.591 27.107V24.8041H236.749C235.834 24.8041 235.376 25.1863 235.376 25.9511C235.376 26.722 235.887 27.107 236.908 27.107H237.591Z" fill="#253539"/>
<path d="M78.4323 40.8637V41.9225C78.8676 41.4872 79.3386 41.1608 79.8441 40.9429C80.3502 40.7253 80.8915 40.6165 81.4679 40.6165C82.7212 40.6165 83.7858 41.0902 84.6625 42.0371C85.5385 42.9843 85.9768 44.1991 85.9768 45.6814C85.9768 47.111 85.5237 48.3067 84.6181 49.2684C83.7118 50.2301 82.6386 50.7113 81.3976 50.7113C80.8446 50.7113 80.3299 50.6126 79.8533 50.4157C79.3768 50.2184 78.9033 49.8963 78.4323 49.4493V53.9761H76.041V40.8637H78.4323ZM80.9648 42.8401C80.2059 42.8401 79.5765 43.099 79.0766 43.6165C78.5766 44.1344 78.3263 44.811 78.3263 45.6463C78.3263 46.4992 78.5766 47.189 79.0766 47.7155C79.5765 48.242 80.2059 48.5052 80.9648 48.5052C81.7003 48.5052 82.3192 48.2377 82.8223 47.7022C83.3253 47.1668 83.5768 46.4844 83.5768 45.6549C83.5768 44.8313 83.3296 44.1563 82.8358 43.6298C82.3414 43.1033 81.7182 42.8401 80.9648 42.8401Z" fill="#253539"/>
<path d="M92.4806 40.6165C93.3862 40.6165 94.2376 40.843 95.0347 41.2958C95.8318 41.7489 96.4538 42.3636 96.9014 43.14C97.3483 43.9168 97.5715 44.7549 97.5715 45.6549C97.5715 46.5608 97.3465 47.4082 96.8964 48.1964C96.4464 48.9845 95.8336 49.6007 95.0569 50.0449C94.2801 50.489 93.4244 50.7113 92.4892 50.7113C91.1126 50.7113 89.9376 50.2215 88.9642 49.2419C87.9902 48.2626 87.5038 47.0728 87.5038 45.6725C87.5038 44.1726 88.0537 42.9227 89.1535 41.9225C90.1183 41.052 91.2273 40.6165 92.4806 40.6165ZM92.5201 42.8842C91.7717 42.8842 91.1484 43.1446 90.6503 43.6652C90.1528 44.1859 89.9037 44.852 89.9037 45.6639C89.9037 46.4992 90.1497 47.1758 90.6417 47.6933C91.1336 48.2112 91.7569 48.4698 92.5114 48.4698C93.2654 48.4698 93.893 48.2081 94.3942 47.6844C94.8947 47.161 95.145 46.4875 95.145 45.6639C95.145 44.8403 94.8991 44.1711 94.4071 43.6563C93.9152 43.1415 93.2863 42.8842 92.5201 42.8842Z" fill="#253539"/>
<path d="M113.384 48.1524H115.837V52.1496H113.534V50.4642H99.5305V40.8638H101.94V48.1524H105.248V40.8638H107.658V48.1524H110.975V40.8638H113.384V48.1524Z" fill="#253539"/>
<path d="M124.246 40.8637H126.655V50.4641H124.246V49.4493C123.776 49.8963 123.305 50.2184 122.831 50.4157C122.359 50.6126 121.846 50.7113 121.294 50.7113C120.054 50.7113 118.982 50.2301 118.077 49.2684C117.172 48.3067 116.72 47.111 116.72 45.6814C116.72 44.1991 117.157 42.9843 118.033 42.0371C118.908 41.0902 119.972 40.6165 121.223 40.6165C121.799 40.6165 122.34 40.7253 122.845 40.9429C123.35 41.1608 123.817 41.4872 124.246 41.9225V40.8637ZM121.714 42.8401C120.969 42.8401 120.351 43.1033 119.858 43.6298C119.366 44.1563 119.12 44.8313 119.12 45.6549C119.12 46.4844 119.37 47.1668 119.871 47.7023C120.373 48.2377 120.989 48.5052 121.722 48.5052C122.479 48.5052 123.106 48.242 123.605 47.7155C124.103 47.189 124.352 46.4992 124.352 45.6463C124.352 44.811 124.103 44.1344 123.605 43.6165C123.106 43.099 122.476 42.8401 121.714 42.8401Z" fill="#253539"/>
<path d="M74.9998 9.13525H76.2139V10.9461L77.8863 9.13525H79.3689L77.2134 11.4939L79.3955 13.9752H77.7852L76.3423 12.2659L76.2139 12.4184V13.9752H74.9998V9.13525Z" fill="#253539"/>
<path d="M82.166 9.01099C82.6226 9.01099 83.0519 9.12494 83.453 9.35326C83.8549 9.58158 84.169 9.89153 84.3945 10.2831C84.6199 10.6743 84.7326 11.097 84.7326 11.5507C84.7326 12.0078 84.6191 12.4346 84.392 12.8319C84.1649 13.2293 83.8558 13.5401 83.4646 13.7639C83.0734 13.9876 82.6417 14.0999 82.1701 14.0999C81.4764 14.0999 80.8839 13.853 80.3933 13.359C79.9018 12.8655 79.6565 12.2655 79.6565 11.5598C79.6565 10.8036 79.9341 10.1733 80.4886 9.66901C80.975 9.23019 81.5336 9.01099 82.166 9.01099ZM82.1858 10.1538C81.8079 10.1538 81.4938 10.2852 81.2436 10.5479C80.9924 10.8102 80.8665 11.1458 80.8665 11.5553C80.8665 11.9763 80.9908 12.3173 81.2386 12.5783C81.4864 12.8394 81.8013 12.9699 82.1809 12.9699C82.5613 12.9699 82.8779 12.8377 83.1306 12.5738C83.3826 12.3102 83.5094 11.9705 83.5094 11.5553C83.5094 11.14 83.385 10.8027 83.1372 10.5433C82.8886 10.2839 82.572 10.1538 82.1858 10.1538Z" fill="#253539"/>
<path d="M85.2928 9.13525H89.8037V10.2918H88.1935V13.9752H86.9785V10.2918H85.2928V9.13525Z" fill="#253539"/>
<path d="M90.1685 9.13525H94.6794V10.2918H93.0691V13.9752H91.8541V10.2918H90.1685V9.13525Z" fill="#253539"/>
<path d="M100.324 11.9066H96.423C96.4794 12.2506 96.6302 12.5245 96.8747 12.7275C97.1191 12.9306 97.4316 13.0321 97.8112 13.0321C98.2645 13.0321 98.6548 12.8734 98.9805 12.556L100.004 13.0366C99.7488 13.3984 99.4438 13.6661 99.0874 13.8397C98.7319 14.0129 98.3092 14.0999 97.8194 14.0999C97.0603 14.0999 96.4421 13.8604 95.9647 13.3814C95.4873 12.9024 95.2487 12.3028 95.2487 11.5818C95.2487 10.8434 95.4865 10.2305 95.9622 9.74236C96.4387 9.25464 97.0354 9.01099 97.7531 9.01099C98.5156 9.01099 99.1347 9.25464 99.6129 9.74236C100.09 10.2305 100.329 10.8748 100.329 11.6754L100.324 11.9066ZM99.1098 10.9503C99.0294 10.6805 98.8711 10.4609 98.6349 10.2918C98.3987 10.1228 98.1253 10.0382 97.8128 10.0382C97.4747 10.0382 97.1772 10.1331 96.9219 10.3229C96.762 10.4418 96.6128 10.6507 96.476 10.9503H99.1098Z" fill="#253539"/>
<path d="M101.935 13.9752V14.8159H100.854V12.9475H101.582L103.254 9.13525H104.036L105.73 12.9475H106.472V14.8159H105.316V13.9752H101.935ZM104.44 12.9475L103.645 10.9063L102.823 12.9475H104.44Z" fill="#253539"/>
<path d="M109.688 12.4184L109.557 12.2692L108.117 13.9752H106.506L108.692 11.4906L106.533 9.13525H108.016L109.688 10.9473V9.13525H110.903V10.9473L112.569 9.13525H114.058L111.902 11.4939L114.084 13.9752H112.473L111.031 12.2659L110.903 12.4184V13.9752H109.688V12.4184Z" fill="#253539"/>
<path d="M115.792 10.8789H117.607V9.13525H118.821V13.9752H117.607V11.9688H115.792V13.9752H114.577V9.13525H115.792V10.8789Z" fill="#253539"/>
<path d="M121.259 10.8789H121.619C122.127 10.8789 122.518 10.9183 122.79 10.997C123.061 11.0758 123.291 11.2395 123.478 11.4885C123.665 11.7375 123.758 12.0504 123.758 12.4271C123.758 12.8008 123.674 13.1116 123.505 13.359C123.336 13.6068 123.12 13.7713 122.858 13.8529C122.596 13.9346 122.227 13.9752 121.753 13.9752H120.044V9.13525H121.259V10.8789ZM121.259 13.0412H121.629C121.85 13.0412 122.009 13.0254 122.107 12.9943C122.205 12.9633 122.292 12.9032 122.366 12.8141C122.44 12.725 122.477 12.6168 122.477 12.4892C122.477 12.0744 122.239 11.8668 121.763 11.8668H121.259V13.0412ZM124.604 9.13525H125.818V13.9752H124.604V9.13525Z" fill="#253539"/>
<path d="M127.687 13.9752H127.041V9.13528H128.225V11.9779L130.703 9.13528H131.285V13.9752H130.102V11.1906L127.687 13.9752ZM127.384 7H128.367C128.444 7.12183 128.552 7.21299 128.69 7.27349C128.827 7.3344 128.995 7.36507 129.194 7.36507C129.396 7.36507 129.579 7.32943 129.741 7.25816C129.848 7.2105 129.942 7.12473 130.022 7H131.005C130.949 7.37667 130.768 7.67916 130.465 7.90748C130.161 8.1358 129.735 8.25017 129.19 8.25017C128.822 8.25017 128.515 8.19879 128.267 8.09644C128.019 7.9945 127.82 7.84823 127.669 7.65844C127.518 7.46866 127.422 7.24904 127.384 7Z" fill="#253539"/>
<path d="M136.272 13.9752H135.057V9.13525H139.301V13.9752H138.087V10.305H136.272V13.9752Z" fill="#253539"/>
<path d="M142.802 9.01099C143.259 9.01099 143.688 9.12494 144.089 9.35326C144.491 9.58158 144.806 9.89153 145.031 10.2831C145.256 10.6743 145.369 11.097 145.369 11.5507C145.369 12.0078 145.256 12.4346 145.028 12.8319C144.801 13.2293 144.492 13.5401 144.101 13.7639C143.71 13.9876 143.278 14.0999 142.807 14.0999C142.113 14.0999 141.52 13.853 141.03 13.359C140.538 12.8655 140.293 12.2655 140.293 11.5598C140.293 10.8036 140.571 10.1733 141.125 9.66901C141.612 9.23019 142.17 9.01099 142.802 9.01099ZM142.822 10.1538C142.444 10.1538 142.13 10.2852 141.88 10.5479C141.629 10.8102 141.503 11.1458 141.503 11.5553C141.503 11.9763 141.627 12.3173 141.875 12.5783C142.123 12.8394 142.438 12.9699 142.817 12.9699C143.198 12.9699 143.514 12.8377 143.767 12.5738C144.019 12.3102 144.146 11.9705 144.146 11.5553C144.146 11.14 144.022 10.8027 143.774 10.5433C143.525 10.2839 143.209 10.1538 142.822 10.1538Z" fill="#253539"/>
<path d="M151.098 10.1141L150.087 10.6701C149.897 10.4712 149.709 10.3337 149.524 10.2562C149.339 10.1791 149.121 10.1406 148.871 10.1406C148.417 10.1406 148.05 10.2761 147.769 10.5471C147.489 10.8181 147.348 11.1653 147.348 11.5884C147.348 12.0003 147.483 12.3364 147.753 12.597C148.024 12.8572 148.379 12.9877 148.818 12.9877C149.361 12.9877 149.785 12.8025 150.087 12.4317L151.045 13.0872C150.526 13.7622 149.794 14.0999 148.847 14.0999C147.996 14.0999 147.33 13.8476 146.848 13.3437C146.366 12.8394 146.125 12.2493 146.125 11.5731C146.125 11.1044 146.243 10.673 146.476 10.2786C146.711 9.88408 147.037 9.57412 147.458 9.3487C147.877 9.1237 148.346 9.01099 148.866 9.01099C149.345 9.01099 149.777 9.10629 150.16 9.29773C150.542 9.48918 150.855 9.76101 151.098 10.1141Z" fill="#253539"/>
<path d="M157.041 11.9066H153.14C153.197 12.2506 153.347 12.5245 153.592 12.7275C153.836 12.9306 154.149 13.0321 154.528 13.0321C154.982 13.0321 155.372 12.8734 155.698 12.556L156.721 13.0366C156.466 13.3984 156.161 13.6661 155.805 13.8397C155.449 14.0129 155.026 14.0999 154.537 14.0999C153.777 14.0999 153.159 13.8604 152.682 13.3814C152.205 12.9024 151.966 12.3028 151.966 11.5818C151.966 10.8434 152.204 10.2305 152.679 9.74236C153.156 9.25464 153.753 9.01099 154.47 9.01099C155.233 9.01099 155.852 9.25464 156.33 9.74236C156.807 10.2305 157.046 10.8748 157.046 11.6754L157.041 11.9066ZM155.827 10.9503C155.747 10.6805 155.588 10.4609 155.352 10.2918C155.116 10.1228 154.842 10.0382 154.53 10.0382C154.192 10.0382 153.894 10.1331 153.639 10.3229C153.479 10.4418 153.33 10.6507 153.193 10.9503H155.827Z" fill="#253539"/>
<path d="M162.349 13.9752H161.113L159.902 10.9233L158.669 13.9752H157.437L159.501 9.13525H160.283L162.349 13.9752Z" fill="#253539"/>
<path d="M165.263 9.01099C165.719 9.01099 166.148 9.12494 166.55 9.35326C166.952 9.58158 167.266 9.89153 167.491 10.2831C167.716 10.6743 167.829 11.097 167.829 11.5507C167.829 12.0078 167.716 12.4346 167.489 12.8319C167.261 13.2293 166.952 13.5401 166.561 13.7639C166.17 13.9876 165.738 14.0999 165.267 14.0999C164.573 14.0999 163.98 13.853 163.49 13.359C162.998 12.8655 162.753 12.2655 162.753 11.5598C162.753 10.8036 163.031 10.1733 163.585 9.66901C164.072 9.23019 164.63 9.01099 165.263 9.01099ZM165.282 10.1538C164.904 10.1538 164.59 10.2852 164.34 10.5479C164.089 10.8102 163.963 11.1458 163.963 11.5553C163.963 11.9763 164.087 12.3173 164.335 12.5783C164.583 12.8394 164.898 12.9699 165.277 12.9699C165.658 12.9699 165.974 12.8377 166.227 12.5738C166.479 12.3102 166.606 11.9705 166.606 11.5553C166.606 11.14 166.482 10.8027 166.234 10.5433C165.985 10.2839 165.669 10.1538 165.282 10.1538Z" fill="#253539"/>
<path d="M168.821 9.13525H170.035V10.9461L171.708 9.13525H173.19L171.035 11.4939L173.217 13.9752H171.606L170.164 12.2659L170.035 12.4184V13.9752H168.821V9.13525Z" fill="#253539"/>
</svg>
