<svg width="196" height="49" viewBox="0 0 196 49" fill="none" xmlns="http://www.w3.org/2000/svg">
<path d="M29.8869 34.3671C32.3475 34.3406 34.7625 33.8418 37.0682 32.8842C39.3426 31.9382 41.4603 30.5659 43.363 28.8055C45.2496 27.0151 46.7511 24.9351 47.8234 22.6254C48.9679 20.1602 49.5454 17.6135 49.5394 15.0564V15.0555C49.5429 12.4826 48.9811 10.1601 47.8694 8.15291C46.7082 6.15876 45.1328 4.68784 43.1892 3.78568C42.2031 3.32788 41.1937 3.09723 40.1804 3.09723C40.1755 3.09723 40.1702 3.09723 40.1654 3.09723C44.367 6.29444 44.6647 12.2495 44.4077 14.9983L44.1288 14.9591C44.1288 14.9591 43.1651 9.82412 41.6082 7.42033C40.0349 5.02997 37.7553 3.12969 34.834 1.77339C30.3558 -0.305899 25.6561 -0.558176 20.8656 1.02423C18.2601 1.90144 15.9481 3.14207 13.9955 4.71122C12.0742 6.28455 10.6059 8.14541 9.63312 10.2406C8.75172 12.1398 8.43524 13.9242 8.69344 15.5447C8.95968 17.1838 9.65475 18.2433 10.8181 18.7835C11.0931 18.911 11.4162 18.9824 11.7815 18.9965C10.8695 11.4456 14.499 8.95577 14.499 8.95577L14.8151 9.04303L14.6347 9.33108C14.0994 10.1865 13.9103 10.5311 13.8461 10.6696C12.8398 12.837 12.6182 14.9564 13.1873 16.9685C13.672 18.7385 14.6916 20.3184 16.2199 21.67C16.7848 20.8443 16.9901 19.8246 16.7055 18.9193C16.3486 17.784 15.9498 17.0918 15.7227 15.8594C15.356 14.1549 15.6609 12.2274 16.6309 10.1382C17.5319 8.1967 18.8781 6.61778 20.6322 5.44502C22.3817 4.2754 24.3479 3.58574 26.4757 3.3954C28.5738 3.21814 30.6071 3.57911 32.5227 4.46854C34.6048 5.43508 36.3058 6.95346 37.5784 8.9818C38.801 10.9848 39.4881 13.3218 39.6224 15.9304C39.7198 18.496 39.2156 20.9877 38.1238 23.3398C37.1851 25.3621 35.9115 27.1053 34.3385 28.5215C32.7872 29.876 31.06 30.7667 29.2023 31.1711C27.3889 31.5767 25.6439 31.3995 24.0178 30.6449C23.6019 30.4518 23.1902 30.2162 22.7913 29.9435C22.4243 30.6069 22.1734 31.4216 22.0206 32.4342C22.3793 32.6512 22.6919 32.822 22.9515 32.9426C25.1156 33.9474 27.4468 34.4261 29.8869 34.3671Z" fill="#C8D0D2"/>
<path d="M13.9719 29.6309C14.2514 29.1114 14.5114 28.5419 14.7514 27.9218C15.211 26.7226 15.5107 25.9633 15.651 25.6433C16.8698 22.5452 17.8095 19.2174 18.4693 15.6593C18.7488 14.1802 19.0587 13.2008 19.3985 12.721C19.7586 12.2014 20.4481 11.7216 21.4673 11.2816C23.5459 10.3427 24.8052 9.80286 25.2452 9.66259C25.665 10.4623 25.9745 11.7719 26.1748 13.5905C26.3744 15.3893 26.4745 17.1088 26.4745 18.7474L26.8043 18.7174C26.8241 18.3178 26.8343 17.2683 26.8343 15.5693C26.8343 12.2314 26.7442 10.0824 26.5645 9.12314C28.3033 8.48354 29.3326 8.16357 29.6526 8.16357C30.0919 8.16357 30.3822 8.29373 30.5221 8.55333C30.6617 8.81329 30.7318 9.32308 30.7318 10.0824C30.7318 12.6414 30.6422 15.2895 30.4621 18.0279C30.2622 20.7464 30.0221 23.4545 29.7426 26.1531C29.4024 29.2112 29.0029 32.3097 28.5433 35.4476C27.9634 39.4855 27.5935 41.9538 27.4341 42.8533C27.134 44.6325 26.9243 45.7613 26.8043 46.2411C26.6842 46.6609 26.3943 47.0109 25.9347 47.2907C25.4748 47.55 24.6855 47.6805 23.5662 47.6805C23.1063 47.6805 22.6767 47.6505 22.2769 47.5904C22.7165 46.2914 23.1363 44.8321 23.5362 43.2131C23.9357 41.5539 24.2958 39.915 24.6158 38.2959L24.3157 38.2659C23.4161 42.1635 22.4464 45.2219 21.4073 47.4404C20.3476 47.3204 19.5583 47.1407 19.0388 46.901C18.5391 46.7014 18.2893 46.3713 18.2893 45.9114C18.2893 45.7313 18.5293 44.9218 19.0088 43.4828C19.5486 41.8638 20.0179 40.3348 20.4181 38.8954C20.9377 37.0366 21.4572 34.7982 21.9771 32.1795C21.4572 32.1397 21.2276 32.1195 21.2876 32.1195C19.8881 32.1195 18.0893 32.4792 15.8907 33.1987C14.1516 37.1968 12.6722 40.2049 11.4533 42.2235C10.1738 44.3426 8.93475 45.9016 7.73547 46.901C6.53619 47.8602 5.29679 48.34 4.0176 48.34C2.87834 48.34 1.92924 47.96 1.16927 47.2007C0.389757 46.4411 0 45.5119 0 44.4124C0 43.293 0.300081 42.3038 0.899547 41.444C1.49936 40.5849 2.35843 39.9251 3.47815 39.4652C3.15818 39.9251 2.99837 40.4747 2.99837 41.1143C2.99837 42.3935 3.51793 43.2232 4.5574 43.6028V43.3328C3.95793 42.8132 3.65785 42.204 3.65785 41.504C3.65785 40.7444 3.92793 40.0647 4.46738 39.4652C4.98694 38.8856 5.60664 38.5957 6.32648 38.5957C7.18555 38.5957 7.73547 39.0957 7.97554 40.0947C8.51499 39.4554 9.12457 38.5461 9.80429 37.3664C10.5838 36.0471 11.1431 35.068 11.4833 34.428C10.5238 34.688 9.54434 34.8178 8.54499 34.8178C7.22568 34.8178 6.16598 34.4783 5.36692 33.7986C4.54693 33.0989 4.13764 32.2395 4.13764 31.22C4.13764 30.4209 4.46738 29.6909 5.12721 29.0315C5.36692 30.7102 6.63599 31.5497 8.93475 31.5497C8.99477 31.5497 9.36429 31.5302 10.044 31.49L10.164 31.28H9.65425C8.61478 31.28 7.74524 31.0403 7.04598 30.5605C6.36626 30.0807 6.0264 29.4613 6.0264 28.7014C6.0264 28.0021 6.36626 27.3126 7.04598 26.6329C7.72535 25.913 8.64479 25.3038 9.80429 24.8038C10.9034 24.324 12.1327 24.0047 13.4922 23.8442L13.6122 24.264C12.2929 24.584 11.2332 25.054 10.4341 25.6733C9.65425 26.293 9.26449 26.9529 9.26449 27.6521C9.26449 28.9917 10.3936 29.6609 12.6526 29.6609C13.1519 29.6609 13.5919 29.6512 13.9719 29.6309ZM17.5098 29.4212C18.649 29.3012 19.5786 29.2412 20.2981 29.2412C21.3176 29.2412 22.0169 29.3312 22.3969 29.5109C22.6167 28.232 22.8467 26.4131 23.0864 24.0543C23.2664 22.0357 23.3565 20.3867 23.3565 19.1071C23.3565 17.2484 23.0665 16.3188 22.4869 16.3188C22.2067 16.3589 21.9771 16.6486 21.7971 17.1884C20.5381 21.3459 19.1086 25.4235 17.5098 29.4212Z" fill="#C8D0D2"/>
<path d="M65.3866 15.814H67.428L71.4948 26.388H69.4032L68.5755 24.21H64.2611L63.4009 26.388H61.3092L65.3866 15.814ZM66.4196 18.6175L65.0014 22.2476H67.8303L66.4196 18.6175Z" fill="#C8D0D2"/>
<path d="M79.8243 26.3881H77.8255L75.869 21.4565L73.8762 26.3881H71.8845L75.2201 18.5674H76.4852L79.8243 26.3881Z" fill="#C8D0D2"/>
<path d="M88.6928 23.0447H82.3887C82.4796 23.6007 82.7231 24.0429 83.1184 24.371C83.5136 24.6995 84.0178 24.8634 84.6315 24.8634C85.3647 24.8634 85.995 24.6071 86.5218 24.0943L88.1755 24.8707C87.7632 25.4553 87.2695 25.8877 86.6945 26.1682C86.1195 26.4484 85.4365 26.5888 84.646 26.5888C83.4192 26.5888 82.4198 26.2018 81.6484 25.4277C80.8765 24.6538 80.4908 23.6845 80.4908 22.5202C80.4908 21.3267 80.8755 20.3361 81.6449 19.5477C82.4138 18.7595 83.378 18.3652 84.5381 18.3652C85.7695 18.3652 86.7709 18.7595 87.5427 19.5477C88.3141 20.3361 88.6998 21.3772 88.6998 22.6711L88.6928 23.0447ZM86.7302 21.4995C86.6006 21.0633 86.345 20.7087 85.9633 20.4356C85.5816 20.1624 85.1392 20.0258 84.635 20.0258C84.0876 20.0258 83.608 20.1792 83.1952 20.4858C82.9356 20.6776 82.696 21.0153 82.475 21.4995H86.7302Z" fill="#C8D0D2"/>
<path d="M90.2811 18.5674H92.2437V21.4934L94.9461 18.5674H97.3421L93.8588 22.3783L97.3852 26.3881H94.7823L92.4506 23.626L92.2437 23.8721V26.3881H90.2811V18.5674Z" fill="#C8D0D2"/>
<path d="M105.844 20.148L104.21 21.0465C103.903 20.7256 103.599 20.5026 103.3 20.3781C103 20.2535 102.648 20.191 102.246 20.191C101.511 20.191 100.918 20.4099 100.464 20.8479C100.011 21.2855 99.7843 21.8467 99.7843 22.5307C99.7843 23.1959 100.002 23.739 100.439 24.1601C100.876 24.5812 101.449 24.7916 102.159 24.7916C103.037 24.7916 103.721 24.4921 104.21 23.8929L105.757 24.9526C104.919 26.0434 103.735 26.5888 102.207 26.5888C100.831 26.5888 99.7541 26.1815 98.9757 25.3667C98.1968 24.5521 97.8076 23.5984 97.8076 22.5056C97.8076 21.7486 97.9969 21.0512 98.3751 20.414C98.7538 19.7767 99.2821 19.2757 99.9605 18.9116C100.639 18.5475 101.397 18.3652 102.236 18.3652C103.012 18.3652 103.709 18.5199 104.327 18.829C104.945 19.1379 105.451 19.5778 105.844 20.148Z" fill="#C8D0D2"/>
<path d="M113.384 18.5666H115.347V26.3874H113.384V25.5608C113.001 25.9248 112.618 26.1872 112.232 26.3479C111.847 26.5084 111.429 26.5888 110.979 26.5888C109.969 26.5888 109.096 26.1968 108.358 25.4134C107.621 24.6299 107.253 23.6559 107.253 22.4913C107.253 21.2838 107.61 20.2942 108.323 19.5226C109.036 18.7512 109.902 18.3652 110.922 18.3652C111.391 18.3652 111.831 18.4539 112.243 18.6311C112.654 18.8087 113.035 19.0746 113.384 19.4291V18.5666ZM111.321 20.1767C110.715 20.1767 110.211 20.3911 109.81 20.82C109.408 21.2489 109.208 21.7988 109.208 22.4697C109.208 23.1454 109.412 23.7014 109.82 24.1375C110.229 24.5737 110.731 24.7916 111.328 24.7916C111.945 24.7916 112.456 24.5772 112.862 24.1483C113.267 23.7194 113.471 23.1575 113.471 22.4627C113.471 21.7822 113.267 21.231 112.862 20.8092C112.456 20.3876 111.943 20.1767 111.321 20.1767Z" fill="#C8D0D2"/>
<path d="M119.286 21.385H122.219V18.5674H124.181V26.3881H122.219V23.1462H119.286V26.3881H117.324V18.5674H119.286V21.385Z" fill="#C8D0D2"/>
<path d="M127.178 26.3881V27.7468H125.431V24.7276H126.609L129.309 18.5674H130.574L133.312 24.7276H134.51V27.7468H132.641V26.3881H127.178ZM131.226 24.7276L129.942 21.4287L128.615 24.7276H131.226Z" fill="#C8D0D2"/>
<path d="M137.695 18.5666V19.4291C138.049 19.0746 138.433 18.8087 138.845 18.6311C139.257 18.4539 139.698 18.3652 140.168 18.3652C141.189 18.3652 142.056 18.7512 142.77 19.5226C143.484 20.2942 143.841 21.2838 143.841 22.4913C143.841 23.6559 143.472 24.6299 142.734 25.4134C141.996 26.1968 141.121 26.5888 140.11 26.5888C139.66 26.5888 139.241 26.5084 138.852 26.3479C138.464 26.1872 138.078 25.9248 137.695 25.5608V29.2484H135.747V18.5666H137.695ZM139.758 20.1767C139.14 20.1767 138.627 20.3876 138.22 20.8092C137.812 21.231 137.608 21.7822 137.608 22.4627C137.608 23.1575 137.812 23.7194 138.22 24.1483C138.627 24.5772 139.14 24.7916 139.758 24.7916C140.357 24.7916 140.861 24.5737 141.271 24.1375C141.681 23.7014 141.886 23.1454 141.886 22.4697C141.886 21.7988 141.684 21.2489 141.282 20.82C140.879 20.3911 140.371 20.1767 139.758 20.1767Z" fill="#C8D0D2"/>
<path d="M149.139 18.3652C149.876 18.3652 150.57 18.5498 151.219 18.9187C151.869 19.2878 152.375 19.7885 152.74 20.421C153.104 21.0538 153.286 21.7365 153.286 22.4697C153.286 23.2077 153.103 23.898 152.736 24.54C152.369 25.1821 151.87 25.684 151.237 26.0459C150.605 26.4077 149.908 26.5888 149.146 26.5888C148.024 26.5888 147.067 26.1898 146.274 25.3918C145.481 24.594 145.084 23.6248 145.084 22.484C145.084 21.2622 145.532 20.244 146.428 19.4291C147.214 18.72 148.118 18.3652 149.139 18.3652ZM149.171 20.2126C148.561 20.2126 148.053 20.4248 147.648 20.8489C147.242 21.273 147.04 21.8156 147.04 22.477C147.04 23.1575 147.24 23.7086 147.641 24.1302C148.041 24.5521 148.549 24.7628 149.164 24.7628C149.778 24.7628 150.289 24.5496 150.698 24.123C151.105 23.6966 151.309 23.1479 151.309 22.477C151.309 21.8061 151.109 21.2609 150.708 20.8416C150.307 20.4222 149.795 20.2126 149.171 20.2126Z" fill="#C8D0D2"/>
<path d="M154.89 26.3881V18.5674H158.031C159.061 18.5674 159.761 18.7698 160.13 19.1748C160.499 19.5798 160.683 20.0386 160.683 20.5513C160.683 21.3132 160.305 21.8621 159.547 22.1973C160.583 22.5521 161.1 23.2205 161.1 24.2028C161.1 24.7349 160.964 25.1746 160.69 25.5218C160.417 25.8694 160.071 26.1006 159.652 26.2156C159.233 26.3306 158.646 26.3881 157.894 26.3881H154.89ZM156.852 21.6439H157.61C157.932 21.6439 158.181 21.5638 158.357 21.4031C158.532 21.2426 158.62 21.0641 158.62 20.8675C158.62 20.5752 158.536 20.3477 158.368 20.1847C158.2 20.0218 158 19.9401 157.769 19.9401L157.516 19.9474H156.852V21.6439ZM156.852 24.8785H157.84C158.225 24.8785 158.495 24.7886 158.652 24.6091C158.808 24.4293 158.887 24.2533 158.887 24.0808C158.887 23.8267 158.799 23.5944 158.623 23.3835C158.448 23.1726 158.131 23.0671 157.674 23.0671H156.852V24.8785Z" fill="#C8D0D2"/>
<path d="M170.423 20.148L168.789 21.0465C168.483 20.7256 168.179 20.5026 167.879 20.3781C167.579 20.2535 167.228 20.191 166.825 20.191C166.091 20.191 165.497 20.4099 165.043 20.8479C164.59 21.2855 164.363 21.8467 164.363 22.5307C164.363 23.1959 164.581 23.739 165.018 24.1601C165.455 24.5812 166.028 24.7916 166.738 24.7916C167.616 24.7916 168.3 24.4921 168.789 23.8929L170.337 24.9526C169.498 26.0434 168.314 26.5888 166.786 26.5888C165.411 26.5888 164.333 26.1815 163.555 25.3667C162.776 24.5521 162.387 23.5984 162.387 22.5056C162.387 21.7486 162.576 21.0512 162.954 20.414C163.333 19.7767 163.861 19.2757 164.54 18.9116C165.218 18.5475 165.976 18.3652 166.815 18.3652C167.591 18.3652 168.288 18.5199 168.906 18.829C169.525 19.1379 170.03 19.5778 170.423 20.148Z" fill="#C8D0D2"/>
<path d="M172.192 18.5674H174.154V21.4934L176.856 18.5674H179.252L175.769 22.3783L179.296 26.3881H176.693L174.361 23.626L174.154 23.8721V26.3881H172.192V18.5674Z" fill="#C8D0D2"/>
<path d="M185.871 18.5666H187.833V26.3874H185.871V25.5608C185.488 25.9248 185.104 26.1872 184.718 26.3479C184.333 26.5084 183.916 26.5888 183.466 26.5888C182.456 26.5888 181.582 26.1968 180.845 25.4134C180.107 24.6299 179.739 23.6559 179.739 22.4913C179.739 21.2838 180.096 20.2942 180.809 19.5226C181.522 18.7512 182.388 18.3652 183.408 18.3652C183.877 18.3652 184.317 18.4539 184.729 18.6311C185.141 18.8087 185.521 19.0746 185.871 19.4291V18.5666ZM183.808 20.1767C183.201 20.1767 182.697 20.3911 182.296 20.82C181.895 21.2489 181.694 21.7988 181.694 22.4697C181.694 23.1454 181.898 23.7014 182.307 24.1375C182.715 24.5737 183.218 24.7916 183.815 24.7916C184.431 24.7916 184.942 24.5772 185.348 24.1483C185.754 23.7194 185.957 23.1575 185.957 22.4627C185.957 21.7822 185.754 21.231 185.348 20.8092C184.942 20.3876 184.429 20.1767 183.808 20.1767Z" fill="#C8D0D2"/>
<path d="M191.151 23.1798C190.728 23.041 190.381 22.7788 190.109 22.3931C189.838 22.0077 189.702 21.573 189.702 21.0892C189.702 20.5096 189.867 20.0019 190.198 19.566C190.529 19.1303 190.923 18.8549 191.38 18.7399C191.838 18.6249 192.554 18.5674 193.526 18.5674H195.51V26.3881H193.548V23.556H193.167L191.299 26.3881H188.974L191.151 23.1798ZM193.548 22.0823V20.2063H192.862C192.117 20.2063 191.743 20.5177 191.743 21.1407C191.743 21.7687 192.16 22.0823 192.992 22.0823H193.548Z" fill="#C8D0D2"/>
<path d="M63.8932 33.2888V34.1513C64.2478 33.7968 64.6315 33.5308 65.0433 33.3533C65.4556 33.176 65.8965 33.0874 66.3661 33.0874C67.387 33.0874 68.2543 33.4733 68.9685 34.2447C69.6821 35.0164 70.0391 36.0059 70.0391 37.2135C70.0391 38.3781 69.67 39.3521 68.9323 40.1355C68.1941 40.919 67.3197 41.3109 66.3088 41.3109C65.8583 41.3109 65.439 41.2306 65.0508 41.0701C64.6626 40.9094 64.2769 40.647 63.8932 40.2829V43.9706H61.9452V33.2888H63.8932ZM65.9563 34.8988C65.3381 34.8988 64.8253 35.1098 64.418 35.5314C64.0107 35.9532 63.8068 36.5044 63.8068 37.1848C63.8068 37.8796 64.0107 38.4416 64.418 38.8705C64.8253 39.2994 65.3381 39.5138 65.9563 39.5138C66.5554 39.5138 67.0596 39.2958 67.4694 38.8597C67.8792 38.4235 68.0841 37.8676 68.0841 37.1919C68.0841 36.5209 67.8827 35.971 67.4804 35.5422C67.0777 35.1133 66.5699 34.8988 65.9563 34.8988Z" fill="#C8D0D2"/>
<path d="M75.3372 33.0874C76.0749 33.0874 76.7685 33.272 77.4178 33.6408C78.0672 34.0099 78.5739 34.5106 78.9385 35.1432C79.3026 35.7759 79.4844 36.4587 79.4844 37.1919C79.4844 37.9299 79.3011 38.6201 78.9345 39.2622C78.5679 39.9043 78.0687 40.4062 77.4359 40.768C76.8031 41.1299 76.1061 41.3109 75.3442 41.3109C74.2228 41.3109 73.2656 40.9119 72.4727 40.1139C71.6792 39.3162 71.283 38.3469 71.283 37.2062C71.283 35.9843 71.7309 34.9661 72.6268 34.1513C73.4128 33.4422 74.3162 33.0874 75.3372 33.0874ZM75.3694 34.9347C74.7597 34.9347 74.252 35.1469 73.8462 35.571C73.4409 35.9951 73.238 36.5378 73.238 37.1992C73.238 37.8796 73.4384 38.4308 73.8392 38.8524C74.2399 39.2743 74.7476 39.4849 75.3623 39.4849C75.9765 39.4849 76.4878 39.2717 76.896 38.8451C77.3038 38.4188 77.5077 37.8701 77.5077 37.1992C77.5077 36.5282 77.3073 35.9831 76.9066 35.5637C76.5058 35.1444 75.9936 34.9347 75.3694 34.9347Z" fill="#C8D0D2"/>
<path d="M92.3659 39.2261H94.3641V42.4823H92.4884V41.1093H81.0804V33.2886H83.043V39.2261H85.7383V33.2886H87.7009V39.2261H90.4038V33.2886H92.3659V39.2261Z" fill="#C8D0D2"/>
<path d="M101.214 33.2888H103.177V41.1095H101.214V40.2829C100.831 40.647 100.448 40.9094 100.062 41.0701C99.6766 41.2306 99.2593 41.3109 98.8093 41.3109C97.7994 41.3109 96.9256 40.919 96.1883 40.1355C95.4511 39.3521 95.083 38.3781 95.083 37.2135C95.083 36.0059 95.4396 35.0164 96.1527 34.2447C96.8658 33.4733 97.7321 33.0874 98.7516 33.0874C99.2206 33.0874 99.6611 33.176 100.073 33.3533C100.484 33.5308 100.865 33.7968 101.214 34.1513V33.2888ZM99.1513 34.8988C98.5447 34.8988 98.041 35.1133 97.6397 35.5422C97.2384 35.971 97.0381 36.5209 97.0381 37.1919C97.0381 37.8676 97.242 38.4235 97.6503 38.8597C98.059 39.2958 98.5612 39.5138 99.1584 39.5138C99.7746 39.5138 100.286 39.2994 100.692 38.8705C101.097 38.4416 101.301 37.8796 101.301 37.1848C101.301 36.5044 101.097 35.9532 100.692 35.5314C100.286 35.1098 99.7725 34.8988 99.1513 34.8988Z" fill="#C8D0D2"/>
<path d="M61.0968 7.44189H62.0859V8.91704L63.4483 7.44189H64.6561L62.9001 9.3633L64.6777 11.3846H63.3659L62.1905 9.99217L62.0859 10.1164V11.3846H61.0968V7.44189Z" fill="#C8D0D2"/>
<path d="M66.9347 7.34033C67.3066 7.34033 67.6564 7.43316 67.9831 7.61916C68.3106 7.80515 68.5664 8.05765 68.7501 8.37665C68.9337 8.69531 69.0255 9.03962 69.0255 9.40925C69.0255 9.78158 68.933 10.1293 68.748 10.453C68.5631 10.7767 68.3112 11.0299 67.9926 11.2122C67.6739 11.3944 67.3222 11.4859 66.938 11.4859C66.373 11.4859 65.8902 11.2847 65.4906 10.8824C65.0902 10.4803 64.8904 9.99154 64.8904 9.41668C64.8904 8.80062 65.1165 8.28719 65.5682 7.87638C65.9645 7.5189 66.4195 7.34033 66.9347 7.34033ZM66.9509 8.27133C66.643 8.27133 66.3871 8.37833 66.1832 8.59235C65.9787 8.80603 65.8761 9.07945 65.8761 9.41296C65.8761 9.75592 65.9773 10.0337 66.1792 10.2464C66.3811 10.4591 66.6376 10.5654 66.9468 10.5654C67.2567 10.5654 67.5146 10.4577 67.7205 10.2427C67.9257 10.028 68.029 9.7512 68.029 9.41296C68.029 9.07472 67.9278 8.79995 67.7259 8.58864C67.5234 8.37732 67.2655 8.27133 66.9509 8.27133Z" fill="#C8D0D2"/>
<path d="M69.4818 7.44189H73.1565V8.38403H71.8447V11.3846H70.855V8.38403H69.4818V7.44189Z" fill="#C8D0D2"/>
<path d="M73.4537 7.44189H77.1284V8.38403H75.8167V11.3846H74.8269V8.38403H73.4537V7.44189Z" fill="#C8D0D2"/>
<path d="M81.7266 9.69921H78.5488C78.5947 9.97939 78.7176 10.2025 78.9168 10.3679C79.1159 10.5333 79.3704 10.616 79.6796 10.616C80.0489 10.616 80.3669 10.4867 80.6322 10.2282L81.466 10.6197C81.2581 10.9144 81.0096 11.1325 80.7193 11.2739C80.4297 11.415 80.0854 11.4859 79.6864 11.4859C79.068 11.4859 78.5643 11.2908 78.1755 10.9006C77.7866 10.5104 77.5922 10.0219 77.5922 9.43457C77.5922 8.83303 77.7859 8.33378 78.1734 7.93613C78.5616 7.53882 79.0477 7.34033 79.6324 7.34033C80.2535 7.34033 80.7578 7.53882 81.1474 7.93613C81.5362 8.33378 81.7307 8.85869 81.7307 9.51085L81.7266 9.69921ZM80.7376 8.92012C80.6721 8.70037 80.5431 8.52146 80.3507 8.38374C80.1583 8.24601 79.9355 8.17715 79.681 8.17715C79.4055 8.17715 79.1632 8.25445 78.9552 8.40905C78.8249 8.50593 78.7034 8.67606 78.592 8.92012H80.7376Z" fill="#C8D0D2"/>
<path d="M83.039 11.3846V12.0695H82.158V10.5475H82.7514L84.1131 7.44189H84.7504L86.1304 10.5475H86.7353V12.0695H85.7928V11.3846H83.039ZM85.0792 10.5475L84.4318 8.88463L83.7627 10.5475H85.0792Z" fill="#C8D0D2"/>
<path d="M89.3547 10.1164L89.2481 9.99487L88.0754 11.3846H86.7629L88.5432 9.3606L86.7845 7.44189H87.9923L89.3547 8.91805V7.44189H90.3445V8.91805L91.7015 7.44189H92.9147L91.1587 9.3633L92.9363 11.3846H91.6238L90.4484 9.99217L90.3445 10.1164V11.3846H89.3547V10.1164Z" fill="#C8D0D2"/>
<path d="M94.327 8.86235H95.8055V7.44189H96.7946V11.3846H95.8055V9.75014H94.327V11.3846H93.3373V7.44189H94.327V8.86235Z" fill="#C8D0D2"/>
<path d="M98.7809 8.86235H99.0745C99.4884 8.86235 99.8064 8.89442 100.028 8.95856C100.249 9.0227 100.436 9.15603 100.589 9.35891C100.741 9.56178 100.817 9.81664 100.817 10.1235C100.817 10.428 100.748 10.6811 100.61 10.8827C100.473 11.0845 100.297 11.2185 100.083 11.285C99.8698 11.3515 99.5694 11.3846 99.1832 11.3846H97.7911V7.44189H98.7809V8.86235ZM98.7809 10.6238H99.0826C99.2622 10.6238 99.3919 10.6109 99.4715 10.5856C99.5519 10.5603 99.6221 10.5113 99.6828 10.4388C99.7429 10.3662 99.7733 10.2781 99.7733 10.1741C99.7733 9.83622 99.5795 9.6671 99.1913 9.6671H98.7809V10.6238ZM101.506 7.44189H102.495V11.3846H101.506V7.44189Z" fill="#C8D0D2"/>
<path d="M104.017 11.3848H103.491V7.44209H104.455V9.75777L106.474 7.44209H106.949V11.3848H105.984V9.1164L104.017 11.3848ZM103.771 5.70264H104.571C104.634 5.80188 104.722 5.87614 104.834 5.92543C104.946 5.97505 105.083 6.00003 105.245 6.00003C105.41 6.00003 105.558 5.971 105.691 5.91294C105.778 5.87412 105.854 5.80424 105.92 5.70264H106.72C106.674 6.00948 106.527 6.2559 106.28 6.4419C106.032 6.62789 105.686 6.72106 105.242 6.72106C104.942 6.72106 104.692 6.6792 104.49 6.59583C104.288 6.51279 104.126 6.39363 104.002 6.23902C103.879 6.08442 103.802 5.90551 103.771 5.70264Z" fill="#C8D0D2"/>
<path d="M111.011 11.3846H110.021V7.44189H113.478V11.3846H112.489V8.39483H111.011V11.3846Z" fill="#C8D0D2"/>
<path d="M116.331 7.34033C116.703 7.34033 117.052 7.43316 117.379 7.61916C117.707 7.80515 117.962 8.05765 118.146 8.37665C118.33 8.69531 118.422 9.03962 118.422 9.40925C118.422 9.78158 118.329 10.1293 118.144 10.453C117.959 10.7767 117.707 11.0299 117.389 11.2122C117.07 11.3944 116.718 11.4859 116.334 11.4859C115.769 11.4859 115.286 11.2847 114.887 10.8824C114.486 10.4803 114.286 9.99154 114.286 9.41668C114.286 8.80062 114.513 8.28719 114.964 7.87638C115.36 7.5189 115.816 7.34033 116.331 7.34033ZM116.347 8.27133C116.039 8.27133 115.783 8.37833 115.579 8.59235C115.375 8.80603 115.272 9.07945 115.272 9.41296C115.272 9.75592 115.373 10.0337 115.575 10.2464C115.777 10.4591 116.034 10.5654 116.343 10.5654C116.653 10.5654 116.911 10.4577 117.116 10.2427C117.322 10.028 117.425 9.7512 117.425 9.41296C117.425 9.07472 117.324 8.79995 117.122 8.58864C116.919 8.37732 116.661 8.27133 116.347 8.27133Z" fill="#C8D0D2"/>
<path d="M123.089 8.23892L122.265 8.69193C122.11 8.5299 121.957 8.41783 121.807 8.35471C121.655 8.29192 121.478 8.26053 121.275 8.26053C120.905 8.26053 120.606 8.37091 120.377 8.59167C120.148 8.81244 120.034 9.09532 120.034 9.43997C120.034 9.7755 120.144 10.0493 120.364 10.2616C120.584 10.4736 120.874 10.5799 121.231 10.5799C121.674 10.5799 122.019 10.429 122.265 10.1269L123.045 10.6609C122.623 11.2108 122.026 11.4859 121.255 11.4859C120.562 11.4859 120.019 11.2804 119.626 10.8699C119.234 10.4591 119.037 9.97838 119.037 9.42748C119.037 9.04569 119.133 8.69429 119.323 8.37293C119.515 8.05157 119.781 7.79908 120.123 7.61544C120.464 7.43215 120.847 7.34033 121.27 7.34033C121.661 7.34033 122.013 7.41797 122.324 7.57392C122.636 7.72988 122.891 7.95132 123.089 8.23892Z" fill="#C8D0D2"/>
<path d="M127.93 9.69921H124.752C124.798 9.97939 124.921 10.2025 125.12 10.3679C125.319 10.5333 125.574 10.616 125.883 10.616C126.252 10.616 126.57 10.4867 126.836 10.2282L127.669 10.6197C127.461 10.9144 127.213 11.1325 126.923 11.2739C126.633 11.415 126.289 11.4859 125.89 11.4859C125.271 11.4859 124.768 11.2908 124.379 10.9006C123.99 10.5104 123.796 10.0219 123.796 9.43457C123.796 8.83303 123.989 8.33378 124.377 7.93613C124.765 7.53882 125.251 7.34033 125.836 7.34033C126.457 7.34033 126.961 7.53882 127.351 7.93613C127.74 8.33378 127.934 8.85869 127.934 9.51085L127.93 9.69921ZM126.941 8.92012C126.875 8.70037 126.746 8.52146 126.554 8.38374C126.362 8.24601 126.139 8.17715 125.884 8.17715C125.609 8.17715 125.367 8.25445 125.159 8.40905C125.028 8.50593 124.907 8.67606 124.795 8.92012H126.941Z" fill="#C8D0D2"/>
<path d="M132.254 11.3846H131.247L130.261 8.89847L129.256 11.3846H128.252L129.934 7.44189H130.571L132.254 11.3846Z" fill="#C8D0D2"/>
<path d="M134.627 7.34033C134.999 7.34033 135.349 7.43316 135.676 7.61916C136.003 7.80515 136.259 8.05765 136.443 8.37665C136.626 8.69531 136.718 9.03962 136.718 9.40925C136.718 9.78158 136.626 10.1293 136.441 10.453C136.256 10.7767 136.004 11.0299 135.685 11.2122C135.367 11.3944 135.015 11.4859 134.631 11.4859C134.066 11.4859 133.583 11.2847 133.183 10.8824C132.783 10.4803 132.583 9.99154 132.583 9.41668C132.583 8.80062 132.809 8.28719 133.261 7.87638C133.657 7.5189 134.112 7.34033 134.627 7.34033ZM134.643 8.27133C134.336 8.27133 134.08 8.37833 133.876 8.59235C133.671 8.80603 133.569 9.07945 133.569 9.41296C133.569 9.75592 133.67 10.0337 133.872 10.2464C134.074 10.4591 134.33 10.5654 134.639 10.5654C134.949 10.5654 135.207 10.4577 135.413 10.2427C135.618 10.028 135.722 9.7512 135.722 9.41296C135.722 9.07472 135.62 8.79995 135.419 8.58864C135.216 8.37732 134.958 8.27133 134.643 8.27133Z" fill="#C8D0D2"/>
<path d="M137.526 7.44189H138.515V8.91704L139.878 7.44189H141.086L139.33 9.3633L141.107 11.3846H139.795L138.62 9.99217L138.515 10.1164V11.3846H137.526V7.44189Z" fill="#C8D0D2"/>
</svg>
