<svg width="35" height="39" viewBox="0 0 35 39" fill="none" xmlns="http://www.w3.org/2000/svg">
<path d="M10.2224 3.76077C14.2625 -0.279265 20.8127 -0.279264 24.8527 3.76077L31.7614 10.6695C35.8015 14.7095 35.8015 21.2597 31.7614 25.2998L19.1632 37.898C18.2654 38.7958 16.8098 38.7958 15.912 37.898L3.31372 25.2998C-0.726317 21.2597 -0.726316 14.7095 3.31372 10.6695L10.2224 3.76077Z" fill="#95C122"/>
<path d="M19.6627 22.5556C20.6904 22.5445 21.699 22.3362 22.662 21.9362C23.6119 21.5412 24.4963 20.968 25.291 20.2328C26.079 19.485 26.706 18.6163 27.1539 17.6517C27.6319 16.6221 27.8731 15.5584 27.8706 14.4905V14.4901C27.872 13.4155 27.6374 12.4456 27.1731 11.6072C26.6881 10.7744 26.0301 10.1601 25.2184 9.78326C24.8066 9.59207 24.385 9.49574 23.9618 9.49574C23.9597 9.49574 23.9576 9.49574 23.9555 9.49574C25.7103 10.831 25.8347 13.3182 25.7273 14.4662L25.6108 14.4498C25.6108 14.4498 25.2084 12.3052 24.5581 11.3013C23.901 10.3029 22.949 9.50929 21.7289 8.94283C19.8586 8.07442 17.8957 7.96906 15.895 8.62995C14.8068 8.99632 13.8412 9.51446 13.0257 10.1698C12.2233 10.8269 11.61 11.6041 11.2037 12.4791C10.8356 13.2724 10.7034 14.0176 10.8113 14.6944C10.9225 15.379 11.2128 15.8215 11.6986 16.0471C11.8135 16.1003 11.9484 16.1302 12.101 16.1361C11.7201 12.9824 13.236 11.9426 13.236 11.9426L13.368 11.979L13.2927 12.0993C13.0691 12.4566 12.9901 12.6005 12.9633 12.6583C12.543 13.5635 12.4505 14.4487 12.6882 15.2891C12.8906 16.0283 13.3164 16.6882 13.9547 17.2526C14.1907 16.9078 14.2764 16.4819 14.1575 16.1038C14.0085 15.6297 13.8419 15.3406 13.747 14.8259C13.5939 14.114 13.7212 13.3089 14.1264 12.4364C14.5027 11.6255 15.0649 10.9661 15.7975 10.4763C16.5282 9.9878 17.3494 9.69976 18.238 9.62026C19.1143 9.54623 19.9635 9.69699 20.7636 10.0685C21.6331 10.4721 22.3436 11.1063 22.8751 11.9534C23.3857 12.79 23.6727 13.766 23.7288 14.8555C23.7694 15.927 23.5588 16.9677 23.1028 17.95C22.7108 18.7946 22.1789 19.5227 21.522 20.1142C20.874 20.6799 20.1527 21.0519 19.3768 21.2208C18.6194 21.3902 17.8906 21.3161 17.2115 21.001C17.0378 20.9203 16.8658 20.822 16.6993 20.7081C16.546 20.9851 16.4412 21.3254 16.3773 21.7483C16.5272 21.839 16.6577 21.9103 16.7662 21.9606C17.67 22.3803 18.6436 22.5802 19.6627 22.5556Z" fill="white"/>
<path d="M13.0159 20.5777C13.1326 20.3607 13.2412 20.1228 13.3414 19.8639C13.5333 19.363 13.6585 19.0459 13.7171 18.9123C14.2261 17.6183 14.6186 16.2285 14.8942 14.7424C15.0109 14.1247 15.1403 13.7156 15.2823 13.5152C15.4327 13.2982 15.7206 13.0979 16.1463 12.9141C17.0144 12.5219 17.5404 12.2965 17.7241 12.2379C17.8994 12.5719 18.0287 13.1189 18.1124 13.8784C18.1957 14.6296 18.2375 15.3478 18.2375 16.0322L18.3753 16.0196C18.3836 15.8528 18.3878 15.4144 18.3878 14.7048C18.3878 13.3108 18.3502 12.4132 18.2751 12.0126C19.0013 11.7455 19.4312 11.6118 19.5649 11.6118C19.7483 11.6118 19.8696 11.6662 19.928 11.7746C19.9863 11.8832 20.0156 12.0961 20.0156 12.4132C20.0156 13.482 19.9782 14.588 19.903 15.7317C19.8195 16.8671 19.7192 17.9981 19.6025 19.1252C19.4604 20.4024 19.2935 21.6964 19.1016 23.007C18.8594 24.6934 18.7049 25.7243 18.6383 26.1C18.513 26.8431 18.4254 27.3145 18.3753 27.5149C18.3251 27.6902 18.204 27.8364 18.0121 27.9533C17.82 28.0616 17.4904 28.1161 17.0229 28.1161C16.8308 28.1161 16.6514 28.1035 16.4844 28.0785C16.668 27.5359 16.8433 26.9265 17.0103 26.2503C17.1772 25.5573 17.3276 24.8728 17.4612 24.1966L17.3359 24.1841C16.9602 25.8119 16.5552 27.0892 16.1212 28.0158C15.6787 27.9657 15.349 27.8906 15.132 27.7905C14.9233 27.7071 14.819 27.5693 14.819 27.3772C14.819 27.302 14.9192 26.9639 15.1195 26.3629C15.3449 25.6867 15.5409 25.0481 15.7081 24.447C15.9251 23.6707 16.1421 22.7358 16.3592 21.6421C16.1421 21.6255 16.0462 21.617 16.0713 21.617C15.4867 21.617 14.7355 21.7673 13.8172 22.0678C13.0909 23.7376 12.473 24.9939 11.964 25.837C11.4296 26.722 10.9121 27.3731 10.4112 27.7905C9.91032 28.1911 9.39268 28.3915 8.85843 28.3915C8.38262 28.3915 7.98623 28.2328 7.66883 27.9157C7.34326 27.5984 7.18048 27.2103 7.18048 26.7511C7.18048 26.2836 7.30581 25.8705 7.55618 25.5114C7.80669 25.1526 8.16548 24.877 8.63313 24.685C8.49949 24.877 8.43275 25.1066 8.43275 25.3737C8.43275 25.9079 8.64974 26.2545 9.08388 26.413V26.3002C8.83351 26.0832 8.70818 25.8288 8.70818 25.5365C8.70818 25.2192 8.82098 24.9353 9.04628 24.685C9.26327 24.4429 9.52209 24.3218 9.82273 24.3218C10.1815 24.3218 10.4112 24.5306 10.5115 24.9479C10.7368 24.6809 10.9914 24.3011 11.2752 23.8084C11.6008 23.2574 11.8344 22.8485 11.9765 22.5812C11.5757 22.6898 11.1667 22.744 10.7493 22.744C10.1983 22.744 9.7557 22.6022 9.42197 22.3183C9.0795 22.0261 8.90856 21.6672 8.90856 21.2413C8.90856 20.9076 9.04628 20.6027 9.32186 20.3273C9.42197 21.0284 9.952 21.379 10.9121 21.379C10.9371 21.379 11.0915 21.3709 11.3754 21.3541L11.4255 21.2664H11.2126C10.7784 21.2664 10.4153 21.1663 10.1232 20.9659C9.83935 20.7655 9.6974 20.5068 9.6974 20.1894C9.6974 19.8974 9.83935 19.6094 10.1232 19.3255C10.407 19.0249 10.791 18.7705 11.2752 18.5616C11.7343 18.3612 12.2477 18.2279 12.8155 18.1609L12.8656 18.3362C12.3146 18.4698 11.872 18.6661 11.5383 18.9248C11.2126 19.1836 11.0498 19.4592 11.0498 19.7512C11.0498 20.3107 11.5214 20.5902 12.4648 20.5902C12.6734 20.5902 12.8571 20.5861 13.0159 20.5777ZM14.4934 20.4901C14.9692 20.44 15.3575 20.4149 15.658 20.4149C16.0838 20.4149 16.3758 20.4525 16.5345 20.5275C16.6263 19.9934 16.7224 19.2337 16.8225 18.2486C16.8977 17.4055 16.9353 16.7168 16.9353 16.1824C16.9353 15.4061 16.8142 15.0179 16.5721 15.0179C16.4551 15.0346 16.3592 15.1556 16.284 15.381C15.7582 17.1174 15.1612 18.8204 14.4934 20.4901Z" fill="white"/>
</svg>
