<svg width="361" height="307" viewBox="0 0 361 307" fill="none" xmlns="http://www.w3.org/2000/svg">
<path d="M225.486 18.5462L203.623 56.1092L138.035 49.5595L79.5838 98.1154L85.6884 107.207L92.5575 104.614L93.4747 114.439L96.7796 118.815L105.922 114.696L110.784 117.845L113.086 125.092L112.006 130.579L131.261 148.615L51.0117 215.458L21.2405 207.408L1 224.467L5.36731 231.245L8.20172 246.927L44.6625 275.582L43.7489 280.224L44.7348 281.157L45.6064 282.16L48.493 284.391L50.6009 285.518L209.233 295.033L265.173 306.041L269.595 290.253L360.407 294.533L278.564 244.673L247.741 237.512L270.105 118.29L298.088 1.7077L289.586 8.14462L282.841 10.1053L280.931 6.44154L253.278 1L245.938 1.5284L227.479 8.41728L225.486 18.5462Z" stroke="#95C122" stroke-dasharray="5 5"/>
<path opacity="0.3" d="M225.487 18.5462L203.623 56.1092L138.036 49.5595L79.5841 98.1154L85.6886 107.207L92.5578 104.614L93.4749 114.439L96.7798 118.815L105.923 114.696L110.785 117.845L113.086 125.092L112.006 130.579L131.261 148.615L51.012 215.458L21.2408 207.408L1.00024 224.467L5.36755 231.245L8.20196 246.927L44.6627 275.582L43.7492 280.224L44.735 281.157L45.6066 282.16L48.4933 284.391L50.6012 285.518L209.233 295.033L265.173 306.041L269.595 290.253L360.407 294.533L278.564 244.673L247.741 237.512L270.105 118.29L298.089 1.7077L289.586 8.14462L282.842 10.1053L280.931 6.44154L253.278 1L245.938 1.5284L227.48 8.41728L225.487 18.5462Z" fill="#95C122"/>
<path d="M171.222 126.761C175.262 122.721 181.813 122.721 185.853 126.761L192.761 133.669C196.801 137.71 196.801 144.26 192.761 148.3L180.163 160.898C179.265 161.796 177.81 161.796 176.912 160.898L164.314 148.3C160.274 144.26 160.274 137.71 164.314 133.669L171.222 126.761Z" fill="#95C122"/>
<path d="M180.663 145.556C181.69 145.545 182.699 145.336 183.662 144.936C184.612 144.541 185.496 143.968 186.291 143.233C187.079 142.485 187.706 141.616 188.154 140.652C188.632 139.622 188.873 138.558 188.871 137.49V137.49C188.872 136.416 188.637 135.446 188.173 134.607C187.688 133.774 187.03 133.16 186.218 132.783C185.807 132.592 185.385 132.496 184.962 132.496C184.96 132.496 184.958 132.496 184.956 132.496C186.71 133.831 186.835 136.318 186.727 137.466L186.611 137.45C186.611 137.45 186.208 135.305 185.558 134.301C184.901 133.303 183.949 132.509 182.729 131.943C180.859 131.074 178.896 130.969 176.895 131.63C175.807 131.996 174.841 132.514 174.026 133.17C173.223 133.827 172.61 134.604 172.204 135.479C171.836 136.272 171.703 137.018 171.811 137.694C171.922 138.379 172.213 138.821 172.699 139.047C172.813 139.1 172.948 139.13 173.101 139.136C172.72 135.982 174.236 134.943 174.236 134.943L174.368 134.979L174.293 135.099C174.069 135.457 173.99 135.6 173.963 135.658C173.543 136.564 173.45 137.449 173.688 138.289C173.891 139.028 174.316 139.688 174.955 140.253C175.191 139.908 175.276 139.482 175.158 139.104C175.008 138.63 174.842 138.341 174.747 137.826C174.594 137.114 174.721 136.309 175.126 135.436C175.503 134.626 176.065 133.966 176.797 133.476C177.528 132.988 178.349 132.7 179.238 132.62C180.114 132.546 180.964 132.697 181.764 133.068C182.633 133.472 183.344 134.106 183.875 134.953C184.386 135.79 184.673 136.766 184.729 137.856C184.769 138.927 184.559 139.968 184.103 140.95C183.711 141.795 183.179 142.523 182.522 143.114C181.874 143.68 181.153 144.052 180.377 144.221C179.619 144.39 178.891 144.316 178.212 144.001C178.038 143.92 177.866 143.822 177.699 143.708C177.546 143.985 177.441 144.325 177.377 144.748C177.527 144.839 177.658 144.91 177.766 144.961C178.67 145.38 179.644 145.58 180.663 145.556Z" fill="white"/>
<path d="M174.016 143.578C174.133 143.361 174.241 143.123 174.341 142.864C174.533 142.363 174.659 142.046 174.717 141.912C175.226 140.618 175.619 139.228 175.894 137.742C176.011 137.125 176.14 136.716 176.282 136.515C176.433 136.298 176.721 136.098 177.146 135.914C178.014 135.522 178.54 135.296 178.724 135.238C178.899 135.572 179.029 136.119 179.112 136.878C179.196 137.63 179.238 138.348 179.238 139.032L179.375 139.02C179.384 138.853 179.388 138.414 179.388 137.705C179.388 136.311 179.35 135.413 179.275 135.013C180.001 134.745 180.431 134.612 180.565 134.612C180.748 134.612 180.87 134.666 180.928 134.775C180.986 134.883 181.016 135.096 181.016 135.413C181.016 136.482 180.978 137.588 180.903 138.732C180.819 139.867 180.719 140.998 180.602 142.125C180.46 143.402 180.294 144.696 180.102 146.007C179.859 147.693 179.705 148.724 179.638 149.1C179.513 149.843 179.425 150.315 179.375 150.515C179.325 150.69 179.204 150.836 179.012 150.953C178.82 151.062 178.49 151.116 178.023 151.116C177.831 151.116 177.651 151.104 177.484 151.078C177.668 150.536 177.843 149.926 178.01 149.25C178.177 148.557 178.328 147.873 178.461 147.197L178.336 147.184C177.96 148.812 177.555 150.089 177.121 151.016C176.679 150.966 176.349 150.891 176.132 150.79C175.923 150.707 175.819 150.569 175.819 150.377C175.819 150.302 175.919 149.964 176.119 149.363C176.345 148.687 176.541 148.048 176.708 147.447C176.925 146.671 177.142 145.736 177.359 144.642C177.142 144.625 177.046 144.617 177.071 144.617C176.487 144.617 175.735 144.767 174.817 145.068C174.091 146.738 173.473 147.994 172.964 148.837C172.43 149.722 171.912 150.373 171.411 150.79C170.91 151.191 170.393 151.391 169.858 151.391C169.383 151.391 168.986 151.233 168.669 150.916C168.343 150.598 168.18 150.21 168.18 149.751C168.18 149.284 168.306 148.87 168.556 148.511C168.807 148.153 169.165 147.877 169.633 147.685C169.499 147.877 169.433 148.107 169.433 148.374C169.433 148.908 169.65 149.254 170.084 149.413V149.3C169.834 149.083 169.708 148.829 169.708 148.536C169.708 148.219 169.821 147.935 170.046 147.685C170.263 147.443 170.522 147.322 170.823 147.322C171.182 147.322 171.411 147.531 171.511 147.948C171.737 147.681 171.991 147.301 172.275 146.808C172.601 146.257 172.834 145.848 172.976 145.581C172.576 145.69 172.167 145.744 171.749 145.744C171.198 145.744 170.756 145.602 170.422 145.318C170.08 145.026 169.909 144.667 169.909 144.241C169.909 143.908 170.046 143.603 170.322 143.327C170.422 144.028 170.952 144.379 171.912 144.379C171.937 144.379 172.091 144.371 172.375 144.354L172.425 144.266H172.213C171.778 144.266 171.415 144.166 171.123 143.966C170.839 143.766 170.697 143.507 170.697 143.189C170.697 142.897 170.839 142.609 171.123 142.326C171.407 142.025 171.791 141.77 172.275 141.562C172.734 141.361 173.248 141.228 173.815 141.161L173.866 141.336C173.315 141.47 172.872 141.666 172.538 141.925C172.213 142.184 172.05 142.459 172.05 142.751C172.05 143.311 172.521 143.59 173.465 143.59C173.673 143.59 173.857 143.586 174.016 143.578ZM175.493 143.49C175.969 143.44 176.357 143.415 176.658 143.415C177.084 143.415 177.376 143.452 177.535 143.528C177.626 142.993 177.722 142.234 177.822 141.249C177.898 140.406 177.935 139.717 177.935 139.182C177.935 138.406 177.814 138.018 177.572 138.018C177.455 138.035 177.359 138.156 177.284 138.381C176.758 140.117 176.161 141.82 175.493 143.49Z" fill="white"/>
<g clip-path="url(#clip0)">
<path d="M47.2587 279.71H38.2212C37.7034 279.71 37.2837 279.29 37.2837 278.772V258.689C37.2837 258.171 37.7034 257.752 38.2212 257.752H47.2587C47.7764 257.752 48.1962 258.171 48.1962 258.689V278.772C48.1962 279.29 47.7764 279.71 47.2587 279.71Z" fill="#FFC85A"/>
<path d="M68.3462 268.664H46.254C45.8506 268.664 45.4924 268.406 45.3647 268.023C45.237 267.641 45.3684 267.219 45.691 266.977C46.0914 266.676 46.3211 266.217 46.3211 265.718C46.3211 265.219 46.0914 264.76 45.6909 264.459C45.3684 264.217 45.237 263.796 45.3647 263.413C45.4924 263.03 45.8506 262.772 46.254 262.772H68.3462C68.8639 262.772 69.2837 263.192 69.2837 263.71V267.727C69.2837 268.244 68.8639 268.664 68.3462 268.664Z" fill="white"/>
<path d="M44.7484 269.166C42.8472 269.166 41.3004 267.619 41.3004 265.718C41.3004 263.817 42.8472 262.27 44.7484 262.27C46.6495 262.27 48.1962 263.817 48.1962 265.718C48.1962 267.619 46.6495 269.166 44.7484 269.166Z" fill="#352E2F"/>
<path d="M68.5725 262.801C68.4999 262.783 68.4244 262.772 68.3462 262.772H65.9496L60.0579 268.664H62.7095L68.5725 262.801Z" fill="#FF0032"/>
<path d="M62.5761 262.772H59.9245L54.0328 268.664H56.6845L62.5761 262.772Z" fill="#FF0032"/>
<path d="M56.5511 262.772H53.8996L48.0079 268.664H50.6595L56.5511 262.772Z" fill="#FF0032"/>
</g>
<g clip-path="url(#clip1)">
<path d="M262.309 137.71H271.346C271.864 137.71 272.284 137.29 272.284 136.772V116.689C272.284 116.171 271.864 115.752 271.346 115.752H262.309C261.791 115.752 261.371 116.171 261.371 116.689V136.772C261.371 137.29 261.791 137.71 262.309 137.71Z" fill="#FFC85A"/>
<path d="M241.221 126.664H263.313C263.717 126.664 264.075 126.406 264.203 126.023C264.33 125.641 264.199 125.219 263.876 124.977C263.476 124.676 263.246 124.217 263.246 123.718C263.246 123.219 263.476 122.76 263.876 122.459C264.199 122.217 264.33 121.796 264.203 121.413C264.075 121.03 263.717 120.772 263.313 120.772H241.221C240.703 120.772 240.284 121.192 240.284 121.71V125.727C240.284 126.244 240.703 126.664 241.221 126.664Z" fill="white"/>
<path d="M264.819 127.166C266.72 127.166 268.267 125.619 268.267 123.718C268.267 121.817 266.72 120.27 264.819 120.27C262.918 120.27 261.371 121.817 261.371 123.718C261.371 125.619 262.918 127.166 264.819 127.166Z" fill="#352E2F"/>
<path d="M240.995 120.801C241.067 120.783 241.143 120.772 241.221 120.772H243.618L249.51 126.664H246.858L240.995 120.801Z" fill="#FF0032"/>
<path d="M246.991 120.772H249.643L255.535 126.664H252.883L246.991 120.772Z" fill="#FF0032"/>
<path d="M253.016 120.772H255.668L261.56 126.664H258.908L253.016 120.772Z" fill="#FF0032"/>
</g>
<defs>
<clipPath id="clip0">
<rect width="32" height="32" fill="white" transform="translate(37.2837 252.731)"/>
</clipPath>
<clipPath id="clip1">
<rect width="32" height="32" fill="white" transform="matrix(-1 0 0 1 272.284 110.731)"/>
</clipPath>
</defs>
</svg>
