<svg width="33" height="33" viewBox="0 0 33 33" fill="none" xmlns="http://www.w3.org/2000/svg">
<g clip-path="url(#clip0)">
<path d="M22.3087 27.7099H31.3462C31.8639 27.7099 32.2837 27.2902 32.2837 26.7724V6.68906C32.2837 6.17131 31.8639 5.75156 31.3462 5.75156H22.3087C21.7909 5.75156 21.3712 6.17131 21.3712 6.68906V26.7724C21.3712 27.2902 21.7909 27.7099 22.3087 27.7099Z" fill="#FFC85A"/>
<path d="M1.22121 16.6641H23.3134C23.7168 16.6641 24.075 16.406 24.2027 16.0233C24.3304 15.6406 24.199 15.2192 23.8764 14.9769C23.476 14.6762 23.2463 14.2174 23.2463 13.7182C23.2463 13.2191 23.476 12.7603 23.8765 12.4595C24.199 12.2172 24.3304 11.7957 24.2027 11.4131C24.075 11.0305 23.7168 10.7724 23.3134 10.7724H1.22121C0.703457 10.7724 0.283707 11.1922 0.283707 11.7099V15.7266C0.283707 16.2443 0.703457 16.6641 1.22121 16.6641Z" fill="white"/>
<path d="M24.819 17.1662C26.7202 17.1662 28.267 15.6194 28.267 13.7182C28.267 11.8171 26.7202 10.2703 24.819 10.2703C22.9178 10.2703 21.3712 11.8171 21.3712 13.7182C21.3712 15.6194 22.9178 17.1662 24.819 17.1662Z" fill="#352E2F"/>
<path d="M0.994833 10.8011C1.06746 10.7831 1.14296 10.7724 1.22115 10.7724H3.61783L9.50952 16.6641H6.85789L0.994833 10.8011Z" fill="#FF0032"/>
<path d="M6.99123 10.7724H9.64286L15.5345 16.6641H12.8829L6.99123 10.7724Z" fill="#FF0032"/>
<path d="M13.0163 10.7724H15.6678L21.5595 16.6641H18.9079L13.0163 10.7724Z" fill="#FF0032"/>
</g>
<defs>
<clipPath id="clip0">
<rect width="32" height="32" fill="white" transform="matrix(-1 0 0 1 32.2837 0.730743)"/>
</clipPath>
</defs>
</svg>
