<svg width="24" height="23" viewBox="0 0 24 23" fill="none" xmlns="http://www.w3.org/2000/svg">
<g clip-path="url(#clip0)">
<path d="M7.82165 18.5755L1.60842 18.5506C1.25247 18.5492 0.965048 18.2595 0.966475 17.9035L1.02183 4.09631C1.02326 3.74036 1.31299 3.45294 1.66894 3.45437L7.88217 3.47928C8.23812 3.4807 8.52554 3.77044 8.52411 4.12639L8.46876 17.9335C8.46733 18.2895 8.1776 18.577 7.82165 18.5755Z" fill="#FFC85A"/>
<path d="M22.3497 11.0397L7.16142 10.9788C6.88406 10.9777 6.63852 10.7992 6.55179 10.5358C6.46506 10.2724 6.55659 9.98298 6.77902 9.81732C7.05514 9.61166 7.21432 9.29691 7.21569 8.95372C7.21707 8.61057 7.06042 8.29451 6.78591 8.0866C6.56482 7.91916 6.47566 7.62902 6.5645 7.36632C6.65334 7.10362 6.9003 6.92719 7.17766 6.9283L22.3659 6.9892C22.7219 6.99062 23.0093 7.28036 23.0079 7.63631L22.9968 10.3978C22.9954 10.7537 22.7056 11.0411 22.3497 11.0397Z" fill="#EDF4F5"/>
<path d="M6.12487 11.3198C4.81781 11.3146 3.75869 10.247 3.76393 8.9399C3.76917 7.63284 4.83682 6.57372 6.14388 6.57896C7.45093 6.5842 8.51001 7.65185 8.50477 8.9589C8.49953 10.266 7.43192 11.3251 6.12487 11.3198Z" fill="#352E2F"/>
<path d="M22.5214 7.00952C22.4716 6.99694 22.4197 6.98943 22.3659 6.98921L20.7182 6.98261L16.6515 11.0169L18.4745 11.0242L22.5214 7.00952Z" fill="#FF0032"/>
<path d="M18.399 6.97332L16.576 6.96601L12.5093 11.0002L14.3323 11.0075L18.399 6.97332Z" fill="#FF0032"/>
<path d="M14.2569 6.95671L12.4339 6.94941L8.36718 10.9836L10.1902 10.9909L14.2569 6.95671Z" fill="#FF0032"/>
</g>
<defs>
<clipPath id="clip0">
<rect width="22" height="22" fill="white" transform="translate(1.03821) rotate(0.229705)"/>
</clipPath>
</defs>
</svg>
