<svg width="33" height="33" viewBox="0 0 33 33" fill="none" xmlns="http://www.w3.org/2000/svg">
<g clip-path="url(#clip0)">
<path d="M10.2587 27.7099H1.22119C0.703441 27.7099 0.283691 27.2902 0.283691 26.7724V6.68906C0.283691 6.17131 0.703441 5.75156 1.22119 5.75156H10.2587C10.7764 5.75156 11.1962 6.17131 11.1962 6.68906V26.7724C11.1962 27.2902 10.7764 27.7099 10.2587 27.7099Z" fill="#FFC85A"/>
<path d="M31.3462 16.6641H9.25399C8.85055 16.6641 8.49236 16.406 8.36468 16.0233C8.23699 15.6406 8.36843 15.2192 8.69099 14.9769C9.09143 14.6762 9.32111 14.2174 9.32111 13.7182C9.32111 13.2191 9.09143 12.7603 8.69093 12.4595C8.36836 12.2172 8.23699 11.7957 8.36468 11.4131C8.49236 11.0305 8.85055 10.7724 9.25399 10.7724H31.3462C31.8639 10.7724 32.2837 11.1922 32.2837 11.7099V15.7266C32.2837 16.2443 31.8639 16.6641 31.3462 16.6641Z" fill="white"/>
<path d="M7.74835 17.1662C5.84716 17.1662 4.30042 15.6195 4.30042 13.7183C4.30042 11.8171 5.84716 10.2703 7.74835 10.2703C9.64954 10.2703 11.1962 11.8171 11.1962 13.7183C11.1962 15.6195 9.64954 17.1662 7.74835 17.1662Z" fill="#352E2F"/>
<path d="M31.5725 10.8011C31.4999 10.7831 31.4244 10.7724 31.3462 10.7724H28.9496L23.0579 16.6641H25.7095L31.5725 10.8011Z" fill="#FF0032"/>
<path d="M25.5761 10.7724H22.9245L17.0328 16.6641H19.6845L25.5761 10.7724Z" fill="#FF0032"/>
<path d="M19.5511 10.7724H16.8996L11.0079 16.6641H13.6595L19.5511 10.7724Z" fill="#FF0032"/>
</g>
<defs>
<clipPath id="clip0">
<rect width="32" height="32" fill="white" transform="translate(0.283691 0.730743)"/>
</clipPath>
</defs>
</svg>
