<svg width="360" height="306" viewBox="0 0 360 306" fill="none" xmlns="http://www.w3.org/2000/svg">
<path opacity="0.3" d="M224.487 17.5462L202.623 55.1092L137.036 48.5595L78.5841 97.1154L84.6886 106.207L91.5578 103.614L92.4749 113.439L95.7798 117.815L104.923 113.696L109.785 116.845L112.086 124.092L111.006 129.579L130.261 147.615L50.012 214.458L20.2408 206.408L0.000244141 223.467L4.36755 230.245L7.20196 245.927L43.6627 274.582L42.7492 279.224L43.735 280.157L44.6066 281.16L47.4933 283.391L49.6012 284.518L208.233 294.033L264.173 305.041L268.595 289.253L359.407 293.533L277.564 243.673L246.741 236.512L269.105 117.29L297.089 0.707704L288.586 7.14462L281.842 9.10528L279.931 5.44154L252.278 0L244.938 0.528397L226.48 7.41728L224.487 17.5462Z" fill="#95C122"/>
</svg>
