<svg width="361" height="307" viewBox="0 0 361 307" fill="none" xmlns="http://www.w3.org/2000/svg">
<path d="M225.486 18.5462L203.623 56.1092L138.035 49.5595L79.5838 98.1154L85.6884 107.207L92.5575 104.614L93.4747 114.439L96.7796 118.815L105.922 114.696L110.784 117.845L113.086 125.092L112.006 130.579L131.261 148.615L51.0117 215.458L21.2405 207.408L1 224.467L5.36731 231.245L8.20172 246.927L44.6625 275.582L43.7489 280.224L44.7348 281.157L45.6064 282.16L48.493 284.391L50.6009 285.518L209.233 295.033L265.173 306.041L269.595 290.253L360.407 294.533L278.564 244.673L247.741 237.512L270.105 118.29L298.088 1.7077L289.586 8.14462L282.841 10.1053L280.931 6.44154L253.278 1L245.938 1.5284L227.479 8.41728L225.486 18.5462Z" stroke="#95C122" stroke-dasharray="5 5"/>
</svg>
