<?xml version="1.0" encoding="utf-8"?>
<!-- Generator: Adobe Illustrator 25.0.0, SVG Export Plug-In . SVG Version: 6.00 Build 0)  -->
<svg version="1.1" id="Слой_1" xmlns="http://www.w3.org/2000/svg" xmlns:xlink="http://www.w3.org/1999/xlink" x="0px" y="0px"
	 viewBox="0 0 1920 930" style="enable-background:new 0 0 1920 930;" xml:space="preserve">
<style type="text/css">
	.st0{fill:#122D04;}
	.st1{fill:#FFFFFF;}
	.st2{fill:#606060;}
</style>
<rect class="st0" width="1920" height="930"/>
<polygon class="st1" points="1166.1629639,57.7318077 1160.9530029,88.0375671 1236.9091797,101.0955811 1242.7860107,71.8789444
	1248.0212402,49.0945625 1237.5583496,55.3924103 1225.0064697,63.5033798 1204.5288086,72.9177475 1198.7973633,64.3295364 "/>
<polygon points="1160.9530029,88.0375671 1236.9091797,101.0955811 1229.9624023,132.2758331 1155.5471191,119.4827118 "/>
<polygon class="st1" points="1155.5471191,119.4827118 1229.9624023,132.2758331 1222.44104,167.7001495 1149.4160156,155.1460419
	"/>
<polygon points="1222.44104,167.7001495 1215.87146,199.9203033 1143.84729,187.538269 1149.4160156,155.1460419 "/>
<polygon class="st1" points="1215.87146,199.9203033 1208.6442871,232.6811981 1138.1694336,220.565506 1143.84729,187.538269 "/>
<polygon points="1208.6442871,232.6811981 1138.1694336,220.565506 1132.1660156,255.4864655 1201.279541,267.3681335 "/>
<polygon class="st1" points="1201.279541,267.3681335 1132.1660156,255.4864655 1125.9666748,291.5464783 1193.6499023,303.3025513
	"/>
<polygon points="1193.6499023,303.3025513 1125.9666748,291.5464783 1119.2563477,330.5795288 1185.4425049,341.9579163 "/>

<polygon points="984.2885132,223.9916687 1049.5993652,235.219574 1041.8609619,275.0632935 977.413269,263.9837646 "/>
<polygon class="st1" points="1049.5993652,235.219574 1041.8609619,275.0632935 1107.0279541,286.2664795 1113.9031982,246.2743835
	"/>
<polygon points="970.4885864,304.2635498 963.5061646,344.8790283 1028.8170166,356.1069336 1034.8126221,316.0623779 "/>
<polygon class="st1" points="1028.8170166,356.1069336 1034.9362793,315.3430786 1100.1032715,326.5462646
	1093.1208496,367.1617432 "/>
<polygon class="st1" points="961.7749634,354.9489746 954.8502808,395.2287903 1020.1610718,406.4566956 1026.2226562,366.0285034
	"/>
<polygon points="1026.2226562,366.0285034 1020.1610718,406.4566956 1084.4649658,417.5115051 1091.3896484,377.2316895 "/>
<polygon class="st1" points="1084.4649658,417.5115051 1020.1610718,406.4566956 1012.340271,446.7799377 1077.5072021,457.9831238
	"/>
<polygon points="1012.340271,446.7799377 947.8925781,435.7004089 954.8502808,395.2287903 1020.1610718,406.4566956 "/>
<polygon class="st1" points="934.0101929,516.4517822 927.0855103,556.7316284 992.3963013,567.9595337 998.4578857,527.5313721 "/>
<polygon points="992.3963013,567.9595337 998.4578857,527.5313721 1063.6248779,538.7345581 1056.7001953,579.0143433 "/>
<polygon class="st1" points="1056.7001953,579.0143433 992.3963013,567.9595337 984.5755005,608.2827759 1049.7424316,619.4859619
	"/>
<polygon points="927.0855103,556.7316284 920.0985718,597.3734741 984.5755005,608.2827759 992.3963013,567.9595337 "/>
<polygon class="st1" points="920.0985718,597.3734741 913.1865845,637.5789185 978.4974365,648.8068848 984.5755005,608.2827759 "/>
<polygon points="1049.7424316,619.4859619 984.5755005,608.2827759 978.4974365,648.8068848 1042.0820312,659.7379761 "/>
<polygon points="970.7095947,688.9382935 906.2619019,677.8587646 913.1865845,637.5789185 978.4974365,648.8068848 "/>
<polygon class="st1" points="906.2619019,677.8587646 899.9307251,714.6859741 964.5490723,729.9418945 970.7095947,688.9382935 "/>
<polygon points="964.5490723,729.9418945 970.7095947,688.9382935 1035.8765869,700.1414795 1028.9188232,740.6130371 "/>
<polygon class="st1" points="964.5490723,729.9418945 956.7612305,770.0733032 1021.8457642,781.7560425 1028.9188232,740.6130981
	"/>
<polygon points="893.1544189,754.1026611 899.9307251,714.6859741 964.5490723,729.9418945 956.7612305,770.0733032 "/>
<polygon class="st1" points="893.1544189,754.1026611 886.3781128,793.5193481 949.6634521,811.3601074 956.7612305,770.0733032 "/>
<polygon points="949.6634521,811.3601074 1015.5557861,818.343811 1021.8457642,781.7560425 956.7612305,770.0733032 "/>
<polygon class="st1" points="1015.5557861,818.343811 949.6634521,811.3601074 941.3043213,859.9835815 1008.0623169,861.9320068
	"/>
<polygon points="901.5698853,202.7308502 893.4613037,249.8967285 958.5793457,260.104126 967.4061279,207.611496 "/>
<polygon class="st1" points="958.5793457,260.104126 893.4613037,249.8967285 886.5942993,289.8408813 951.1638794,300.9413452 "/>
<polygon points="951.1638794,300.9413452 886.5942993,289.8408813 879.6778564,330.0727234 944.1814575,341.5568237 "/>
<polygon class="st1" points="879.6778564,330.0727234 815.0942383,319.3647766 822.0766602,278.7492981 886.5942993,289.8408813 "/>
<polygon points="822.0766602,278.7492981 829.1085815,237.8461304 893.4613037,249.8967285 886.5942993,289.8408813 "/>
<polygon class="st1" points="829.1085815,237.8461304 893.4613037,249.8967285 901.5698853,202.7308502 835.9013672,198.3335571 "/>
<polygon points="801.8895264,276.7105408 720.9994507,265.0570679 689.5601807,293.7352905 697.515625,299.1512146
	712.8602905,301.7892151 795.1461792,315.9353943 "/>
<polygon class="st1" points="801.8895264,276.7105408 815.7020874,196.3652344 797.7628174,195.0353394 720.9994507,265.0570679 "/>
<polygon class="st1" points="689.5601807,293.7352905 697.515625,299.1512146 712.8602905,301.7892151 696.3447876,387.5185852
	693.4765015,391.5674744 678.9683838,379.327301 679.8096924,368.7790222 673.6975098,354.9909363 663.7174072,354.460083
	656.6236572,361.7928467 632.5998535,339.0391541 687.0787354,290.9389648 "/>
<polygon points="720.144104,313.4089661 811.8286133,329.170929 805.7612305,364.4637146 713.3155518,347.3860168 "/>
<polygon class="st1" points="713.3155518,347.3860168 707.7537842,379.7377319 710.0565796,377.8297119 718.0819702,381.5133057
	722.7625732,386.291687 799.5289917,400.7155457 805.7612305,364.4637146 "/>
<polygon points="799.5289917,400.7155457 722.7625732,386.291687 734.9071655,398.690033 736.3812256,410.7920837
	731.0397339,426.6766968 786.3511963,475.0713196 "/>
<polygon class="st1" points="786.3511963,475.0713196 706.0188599,545.7821045 772.237854,557.1661377 "/>
<polygon points="772.237854,557.1661377 706.0188599,545.7821045 658.605835,587.5163574 763.907959,605.6193848 "/>
<polygon class="st1" points="763.907959,605.6193848 756.8717041,646.5482178 678.0383911,632.9955444 686.2255249,592.2645874 "/>
<polygon class="st2" points="678.0383911,632.9955444 686.2255249,592.2645874 658.605835,587.5163574 620.9396362,620.6712036
	630.5148926,622.2583618 626.6629028,643.5161133 610.7427979,640.7792358 604.7335205,645.8679199 602.062561,661.4044189
	671.1136475,673.2753296 "/>
<polygon class="st1" points="749.9470215,686.8280029 743.6673584,727.6630249 668.8619995,714.8028564 676.4363403,674.1904297 "/>
<polygon points="668.8619995,714.8028564 676.4363403,674.1904297 671.1136475,673.2753296 602.062561,661.4044189
	595.1873169,701.3965454 "/>
<polygon class="st1" points="595.1873169,701.3965454 668.8619995,714.8028564 662.5127563,755.1815796 588.1389771,742.3956299 "/>
<polygon points="662.5127563,755.1815796 668.8619995,714.8028564 743.6673584,727.6630249 736.0233765,767.8191528 "/>
<polygon class="st1" points="655.4891357,796.0368042 645.7944946,852.4285278 569.46698,851.0072021 581.1153564,783.2508545 "/>
<polygon points="645.7944946,852.4285278 655.4891357,796.0368042 692.2444458,802.3555908 683.4649048,853.4246216 "/>
<polygon class="st2" points="692.2444458,802.3555908 683.4649048,853.4246216 721.9287109,854.112854 728.9997559,808.6744385 "/>
<polygon class="st1" points="883.7568359,341.5364685 876.8321533,381.8162842 817.5632935,371.6270752 825.255188,331.4791565 "/>
<polygon points="876.8321533,381.8162842 883.7568359,341.5364685 942.8338623,351.6927185 935.0100708,392.6078491 "/>
<polygon points="876.8321533,381.8162842 817.4313965,372.3943176 810.4407349,413.0577393 869.7095947,423.2469482 "/>
<polygon class="st1" points="869.7095947,423.2469482 876.8321533,381.8162842 935.0100708,392.6078491 928.7866211,433.4031677 "/>
<polygon points="928.7866211,433.4031677 869.7095947,423.2469482 862.8425903,463.1910706 921.1524048,473.2154236 "/>
<polygon class="st1" points="921.1524048,473.2154236 862.8425903,463.1910706 855.7612305,504.381958 914.8382568,514.538208 "/>
<polygon points="914.8382568,514.538208 855.7612305,504.381958 848.7705688,545.0454102 907.0803833,555.0697021 "/>
<polygon class="st1" points="907.0803833,555.0697021 848.7705688,545.0454102 841.7799072,585.7088013 900.8569336,595.8650513 "/>
<polygon class="st1" points="827.831604,666.8438721 834.8552246,625.9886475 893.932251,636.1448364 886.1414185,676.8681641 "/>
<polygon points="760.1777954,713.4689941 752.8903809,755.8587036 810.8165894,765.8170776 817.1449585,723.2625122 "/>
<polygon class="st1" points="810.8165894,765.8170776 817.1449585,723.2625122 876.4138184,733.4517212 869.8936157,775.9733276 "/>
<polygon points="869.8936157,775.9733276 810.8165894,765.8170776 803.5621338,808.0149536 861.8719482,818.0393066 "/>
<polygon points="745.6359253,798.0565796 735.7434692,855.5991821 795.3184204,855.9671021 803.5621338,808.0149536 "/>
<polygon class="st1" points="861.8719482,818.0393066 803.5621338,808.0149536 795.3184204,855.9671021 855.8134155,857.8756104 "/>
<polygon class="st1" points="560.4556885,792.2883301 499.8277588,761.574646 493.9417419,795.8125 552.4678955,839.8001709 "/>
<polygon points="560.4556885,792.2883301 499.8277588,761.574646 506.0847168,725.1789551 570.2758179,736.2144165 "/>
<polygon class="st1" points="572.5016479,723.267334 507.0158081,712.0093384 517.5114746,658.7115479 581.0091553,673.7807007 "/>
<polygon points="507.0158081,712.0093384 517.5114746,658.7115479 479.6403809,649.8370972 431.7121582,690.8479614
	496.7072449,719.4197998 498.3844299,710.5254517 "/>
<polygon class="st1" points="496.7072449,719.4197998 484.7373962,789.0463257 447.3939819,761.5950928 441.77771,738.2652588
	433.8193359,713.0516968 426.6808472,701.1607056 421.9875793,699.1689453 431.7121582,690.8479614 "/>
<polygon points="941.3043213,859.9835815 949.6634521,811.3601074 886.3781128,793.5193481 876.4138184,855.9671021 "/>
<rect x="756.8178101" y="752.5488281" transform="matrix(0.1694293 -0.9855424 0.9855424 0.1694293 -124.2599564 1416.4287109)" class="st1" width="42.8169098" height="58.7759705"/>
<polygon points="827.831604,666.8438721 820.7310181,703.9003296 879.2125854,714.8028564 886.1414185,676.8681641 "/>
<polygon class="st1" points="820.7310181,703.9003296 761.145752,695.7849731 769.652832,655.0251465 827.831604,666.8438721 "/>
<polygon points="834.8552246,625.9886475 775.5407104,615.1513672 769.652832,655.0251465 827.831604,666.8438721 "/>
<rect x="847.4207153" y="580.9550171" transform="matrix(0.1694299 -0.9855422 0.9855422 0.1694299 118.7211227 1362.7264404)" width="40.8707085" height="59.9436722"/>
<polygon class="st1" points="834.8552246,625.9886475 775.5407104,615.1513672 783.5155029,573.9484253 841.7799072,585.7088013 "/>
<polygon points="848.7705688,545.0454102 788.5366211,532.8932495 783.5155029,573.9484253 841.7799072,585.7088013 "/>
<polygon class="st1" points="848.7705688,545.0454102 788.5366211,532.8932495 796.5114136,492.1333618 855.7612305,504.381958 "/>
<polygon points="862.8425903,463.1910706 803.6000366,451.9642029 796.5114136,492.1333618 855.7612305,504.381958 "/>
<polygon class="st1" points="869.7095947,423.2469482 810.4407349,413.0577393 803.6000366,451.9642029 862.8425903,463.1910706 "/>
<polygon points="1077.5072021,457.9831238 1012.340271,446.7799377 1005.9225464,486.9956665 1070.6066895,497.7452087 "/>
<polygon class="st1" points="1005.9225464,486.9956665 941.2384644,475.0713196 947.8925781,435.7004089 1012.340271,446.7799377
	"/>
<polygon points="1005.9225464,486.9956665 998.4578857,527.5313721 934.0101929,516.4517822 941.2384644,475.0713196 "/>
<polygon class="st1" points="1070.6066895,497.7452087 1005.9225464,486.9956665 998.4578857,527.5313721 1063.6248779,538.7345581
	"/>
<polygon class="st1" points="978.4974365,648.8068848 970.7095947,688.9382935 1035.8765869,700.1414795 1042.0820312,659.7379761
	"/>
<polygon class="st1" points="1120.1766357,714.6339111 1055.1533203,703.4554443 1062.6534424,663.2745361 1127.1014404,674.354126
	"/>
<polygon class="st1" points="1140.7835693,593.4695435 1076.3604736,582.3942261 1069.0192871,622.7999268
	1134.0423584,633.9783936 "/>
<polygon class="st1" points="1057.4663086,184.2898712 1050.4674072,225.001236 1116.3876953,235.219574 1122.8856201,195.8859558
	"/>
<polygon points="1129.6816406,154.4939728 1064.3909912,144.0100708 1057.4663086,184.2898712 1122.8856201,195.8859558 "/>
<rect x="693.557373" y="619.9168701" transform="matrix(0.16943 -0.9855422 0.9855422 0.16943 -57.3500328 1251.7728271)" width="40.8706818" height="79.9898148"/>
<rect x="601.086792" y="731.4838257" transform="matrix(0.1694293 -0.9855424 0.9855424 0.1694293 -241.6345978 1251.7125244)" width="41.4545593" height="75.4648209"/>
<rect x="675.0289307" y="744.6334839" transform="matrix(0.1694294 -0.9855423 0.9855423 0.1694294 -192.7484589 1335.1435547)" class="st1" width="41.4545898" height="74.5890121"/>
<polygon class="st1" points="970.4885864,304.2635498 977.097168,263.9298096 1041.8609619,275.0632935 1034.8126221,316.0623779
	"/>
<polygon points="1041.8609619,275.0632935 1034.9362793,315.3430786 1100.1032715,326.5462646 1107.4899902,286.2664795 "/>
</svg>
