<svg width="30" height="30" viewBox="0 0 30 30" fill="none" xmlns="http://www.w3.org/2000/svg">
<path d="M25.9404 16.4222C25.8841 16.3661 25.8237 16.3169 25.7591 16.279C23.5882 14.9146 20.6923 15.1704 18.8024 17.0603L17.809 18.0551V4.68547C17.809 3.13976 16.5444 1.87524 14.9988 1.87524C13.4531 1.87524 12.1898 3.13976 12.1898 4.68547V10.8679C11.6769 10.2384 10.9029 9.82811 10.0275 9.82811C9.41911 9.82811 8.85855 10.0277 8.39899 10.3578L2.34716 13.8608C1.51121 14.347 0.947754 15.2476 0.947754 16.2818V20.9032C0.947754 25.9279 5.01969 29.9999 10.0445 29.9999C12.4781 29.9999 14.6827 29.0388 16.3141 27.482L16.3155 27.4945L25.9419 17.8681C26.3409 17.469 26.3409 16.8213 25.9404 16.4222Z" fill="#757F82"/>
<path d="M29.5616 4.71478L24.8482 0V3.30281H20.6206V6.11304H24.8482V9.42973L29.5616 4.71478Z" fill="#757F82"/>
<path d="M5.15193 3.30281V0L0.438477 4.71478L5.15193 9.42973V6.11304H9.37957V3.30281H5.15193Z" fill="#757F82"/>
</svg>
