<?xml version="1.0" standalone="no"?>
<!DOCTYPE svg PUBLIC "-//W3C//DTD SVG 20010904//EN"
 "http://www.w3.org/TR/2001/REC-SVG-20010904/DTD/svg10.dtd">
<svg version="1.0" xmlns="http://www.w3.org/2000/svg"
 width="976.000000pt" height="976.000000pt" viewBox="0 0 976.000000 976.000000"
 preserveAspectRatio="xMidYMid meet">
<metadata>
Created by potrace 1.11, written by Peter Selinger 2001-2013
</metadata>
<g transform="translate(0.000000,976.000000) scale(0.100000,-0.100000)"
fill="#000000" stroke="none">
<path d="M5085 9673 c-587 -47 -1079 -187 -1624 -463 -582 -294 -1031 -678
-1346 -1150 -311 -466 -462 -960 -416 -1359 42 -354 182 -593 413 -701 62 -29
183 -58 194 -47 3 3 0 71 -6 151 -18 206 -8 581 19 754 58 380 196 703 399
939 83 96 122 126 156 117 14 -3 26 -11 26 -18 0 -6 -28 -54 -61 -106 -214
-336 -320 -708 -305 -1070 17 -444 213 -867 559 -1209 50 -49 90 -81 96 -77
18 11 66 114 91 191 16 52 22 96 23 170 0 97 -1 105 -57 265 -32 91 -75 215
-96 275 -134 384 -116 777 55 1207 128 321 287 567 512 790 191 190 367 315
618 438 321 159 626 235 985 247 293 10 540 -25 806 -112 160 -53 419 -176
549 -262 702 -464 1104 -1272 1105 -2219 0 -278 -29 -520 -90 -760 -251 -974
-940 -1789 -1730 -2043 -108 -34 -229 -65 -234 -60 -2 2 0 29 5 59 17 110 109
913 138 1205 79 792 130 1485 150 2040 25 705 23 984 -9 1097 -25 87 -121 131
-237 108 -63 -12 -533 -167 -545 -179 -4 -4 -1 -69 7 -146 23 -223 36 -713 33
-1245 l-3 -495 -31 -3 -31 -3 -7 218 c-22 687 -102 1262 -210 1506 -23 52 -28
58 -48 52 -96 -29 -796 -340 -892 -397 -256 -150 -319 -271 -426 -813 -118
-599 -276 -1188 -442 -1645 -96 -266 -313 -809 -380 -951 l-50 -107 -131 -4
c-526 -18 -775 96 -795 363 -12 168 89 325 298 465 135 90 333 175 498 214 53
12 53 13 46 44 -3 17 -9 35 -12 40 -12 21 -302 -31 -477 -85 -331 -102 -584
-245 -775 -439 -160 -161 -213 -267 -213 -420 1 -222 149 -383 429 -466 71
-21 118 -27 232 -31 78 -3 142 -9 142 -12 0 -4 -6 -14 -12 -23 -10 -12 -42
-17 -139 -22 -457 -23 -753 132 -820 429 -7 30 -15 55 -18 55 -3 -1 -28 -28
-54 -62 -95 -120 -131 -223 -131 -368 1 -184 57 -313 194 -450 150 -150 295
-215 538 -241 160 -17 383 -1 595 42 54 11 101 19 103 17 4 -5 -240 -434 -371
-653 -93 -154 -158 -252 -237 -357 -56 -75 -78 -93 -78 -65 0 24 -58 134 -90
171 -125 142 -388 122 -558 -42 -117 -113 -181 -247 -189 -398 -8 -141 29
-243 124 -345 44 -47 60 -83 42 -94 -13 -9 -103 42 -153 86 -150 133 -193 447
-90 650 14 28 23 53 20 56 -9 9 -192 -92 -266 -148 -185 -140 -307 -321 -367
-548 -34 -126 -39 -357 -9 -461 76 -271 291 -482 560 -550 107 -27 296 -27
418 0 256 56 513 223 746 482 386 431 752 1072 1253 2198 l118 265 82 28 c218
75 570 154 787 178 106 11 306 8 319 -5 9 -9 -76 -423 -157 -763 -112 -477
-186 -732 -450 -1558 -107 -334 -115 -369 -100 -426 18 -67 79 -119 181 -156
146 -53 404 -101 425 -80 16 16 102 223 173 414 114 305 257 791 352 1190 l43
183 28 0 c18 0 28 -5 28 -15 0 -23 -106 -518 -160 -750 -72 -306 -140 -561
-215 -810 -37 -121 -70 -227 -72 -237 -7 -25 73 -31 315 -25 221 5 280 15 379
63 62 30 135 100 164 157 12 22 32 92 45 156 47 219 163 936 254 1571 51 349
93 640 95 646 2 7 83 13 247 17 133 3 302 13 373 22 666 80 1275 319 1840 724
891 638 1480 1605 1612 2646 33 265 23 661 -23 940 -117 703 -515 1296 -1079
1608 -218 121 -477 198 -663 197 l-47 0 55 -47 c470 -396 736 -1016 780 -1818
9 -157 6 -354 -6 -433 -4 -29 -9 -33 -31 -30 -25 3 -27 9 -58 153 -86 398
-224 845 -342 1103 -100 220 -262 442 -488 667 -297 297 -610 508 -1030 696
-472 210 -996 322 -1485 317 -91 -1 -183 -3 -205 -5z m-599 -3228 c37 -37 61
-99 81 -206 32 -176 18 -746 -33 -1279 -32 -340 -123 -1052 -136 -1065 -3 -3
-32 1 -64 10 -135 35 -510 38 -803 5 -47 -5 -86 -8 -87 -7 -2 1 37 106 87 232
240 613 473 1281 679 1940 45 143 90 279 101 302 43 89 123 120 175 68z"/>
</g>
</svg>
